<svg xmlns="http://www.w3.org/2000/svg" xmlns:xlink="http://www.w3.org/1999/xlink" contentStyleType="text/css" data-diagram-type="ACTIVITY" height="1471px" preserveAspectRatio="none" style="width:2916px;height:1471px;background:#FFFFFF;" version="1.1" viewBox="0 0 2916 1471" width="2916px" zoomAndPan="magnify"><defs/><g><rect fill="none" height="13.9688" style="stroke:none;stroke-width:1;" width="2883.7568" x="15" y="11.3301"/><ellipse cx="609.8247" cy="40.2988" fill="#222222" rx="10" ry="10" style="stroke:#222222;stroke-width:1;"/><rect fill="#F9F9F9" height="33.9688" rx="12.5" ry="12.5" style="stroke:#333333;stroke-width:0.5;" width="158.1465" x="530.7515" y="70.2988"/><text fill="#000000" font-family="sans-serif" font-size="12" lengthAdjust="spacing" textLength="138.1465" x="540.7515" y="91.4375">Открыть приложение</text><polygon fill="#F9F9F9" points="537.4438,124.2676,682.2056,124.2676,694.2056,136.2676,682.2056,148.2676,537.4438,148.2676,525.4438,136.2676,537.4438,124.2676" style="stroke:#333333;stroke-width:0.5;"/><text fill="#000000" font-family="sans-serif" font-size="12" lengthAdjust="spacing" textLength="144.7617" x="537.4438" y="140.4219">Уже зарегистрирован?</text><text fill="#000000" font-family="sans-serif" font-size="12" lengthAdjust="spacing" textLength="22.2188" x="503.2251" y="133.4375">нет</text><text fill="#000000" font-family="sans-serif" font-size="12" lengthAdjust="spacing" textLength="15.6504" x="694.2056" y="133.4375">да</text><rect fill="#F9F9F9" height="33.9688" rx="12.5" ry="12.5" style="stroke:#333333;stroke-width:0.5;" width="177.8164" x="426.5356" y="168.2676"/><text fill="#000000" font-family="sans-serif" font-size="12" lengthAdjust="spacing" textLength="157.8164" x="436.5356" y="189.4063">Выполнить регистрацию</text><rect fill="#F9F9F9" height="33.9688" rx="12.5" ry="12.5" style="stroke:#333333;stroke-width:0.5;" width="209.1875" x="410.8501" y="222.2363"/><text fill="#000000" font-family="sans-serif" font-size="12" lengthAdjust="spacing" textLength="189.1875" x="420.8501" y="243.375">Заполнить профиль здоровья</text><rect fill="#F9F9F9" height="33.9688" rx="12.5" ry="12.5" style="stroke:#333333;stroke-width:0.5;" width="123.8984" x="642.2563" y="168.2676"/><text fill="#000000" font-family="sans-serif" font-size="12" lengthAdjust="spacing" textLength="103.8984" x="652.2563" y="189.4063">Выполнить вход</text><polygon fill="#F9F9F9" points="609.8247,428.1113,621.8247,440.1113,609.8247,452.1113,597.8247,440.1113,609.8247,428.1113" style="stroke:#333333;stroke-width:0.5;"/><rect fill="#F9F9F9" height="33.9688" rx="12.5" ry="12.5" style="stroke:#333333;stroke-width:0.5;" width="114.998" x="552.3257" y="472.1113"/><text fill="#000000" font-family="sans-serif" font-size="12" lengthAdjust="spacing" textLength="94.998" x="562.3257" y="493.25">Главный экран</text><rect fill="#F9F9F9" height="33.9688" rx="12.5" ry="12.5" style="stroke:#333333;stroke-width:0.5;" width="137.2754" x="541.187" y="570.0801"/><text fill="#000000" font-family="sans-serif" font-size="12" lengthAdjust="spacing" textLength="117.2754" x="551.187" y="591.2188">Выбрать действие</text><polygon fill="#F9F9F9" points="161.9785,624.0488,306.4941,624.0488,318.4941,636.0488,306.4941,648.0488,161.9785,648.0488,149.9785,636.0488,161.9785,624.0488" style="stroke:#333333;stroke-width:0.5;"/><text fill="#000000" font-family="sans-serif" font-size="12" lengthAdjust="spacing" textLength="15.6504" x="238.2363" y="659.1875">да</text><text fill="#000000" font-family="sans-serif" font-size="12" lengthAdjust="spacing" textLength="144.5156" x="161.9785" y="640.2031">Управление аптечкой?</text><rect fill="#F9F9F9" height="33.9688" rx="12.5" ry="12.5" style="stroke:#333333;stroke-width:0.5;" width="187.7539" x="140.3594" y="680.6875"/><text fill="#000000" font-family="sans-serif" font-size="12" lengthAdjust="spacing" textLength="167.7539" x="150.3594" y="701.8262">Показать список лекарств</text><rect fill="#F9F9F9" height="33.9688" rx="12.5" ry="12.5" style="stroke:#333333;stroke-width:0.5;" width="176.9199" x="145.7764" y="734.6563"/><text fill="#000000" font-family="sans-serif" font-size="12" lengthAdjust="spacing" textLength="156.9199" x="155.7764" y="755.7949">Отметить просроченные</text><polygon fill="#F9F9F9" points="89.6064,813.625,172.5986,813.625,184.5986,825.625,172.5986,837.625,89.6064,837.625,77.6064,825.625,89.6064,813.625" style="stroke:#333333;stroke-width:0.5;"/><text fill="#000000" font-family="sans-serif" font-size="12" lengthAdjust="spacing" textLength="15.6504" x="135.1025" y="848.7637">да</text><text fill="#000000" font-family="sans-serif" font-size="12" lengthAdjust="spacing" textLength="82.9922" x="89.6064" y="829.7793">Добавление?</text><rect fill="#F9F9F9" height="33.9688" rx="12.5" ry="12.5" style="stroke:#333333;stroke-width:0.5;" width="170.2051" x="46" y="871.5938"/><text fill="#000000" font-family="sans-serif" font-size="12" lengthAdjust="spacing" textLength="150.2051" x="56" y="892.7324">Ввести номер/название</text><polygon fill="#F9F9F9" points="270.6328,813.625,338.0449,813.625,350.0449,825.625,338.0449,837.625,270.6328,837.625,258.6328,825.625,270.6328,813.625" style="stroke:#333333;stroke-width:0.5;"/><text fill="#000000" font-family="sans-serif" font-size="12" lengthAdjust="spacing" textLength="15.6504" x="308.3389" y="848.7637">да</text><text fill="#000000" font-family="sans-serif" font-size="12" lengthAdjust="spacing" textLength="67.4121" x="270.6328" y="829.7793">Удаление?</text><rect fill="#F9F9F9" height="33.9688" rx="12.5" ry="12.5" style="stroke:#333333;stroke-width:0.5;" width="136.2676" x="236.2051" y="871.5938"/><text fill="#000000" font-family="sans-serif" font-size="12" lengthAdjust="spacing" textLength="116.2676" x="246.2051" y="892.7324">Выбрать упаковку</text><polygon fill="#F9F9F9" points="422.4727,624.0488,593.127,624.0488,605.127,636.0488,593.127,648.0488,422.4727,648.0488,410.4727,636.0488,422.4727,624.0488" style="stroke:#333333;stroke-width:0.5;"/><text fill="#000000" font-family="sans-serif" font-size="12" lengthAdjust="spacing" textLength="15.6504" x="511.7998" y="659.1875">да</text><text fill="#000000" font-family="sans-serif" font-size="12" lengthAdjust="spacing" textLength="170.6543" x="422.4727" y="640.2031">Редактирование профиля?</text><polygon fill="#F9F9F9" points="863.6118,624.0488,1001.6001,624.0488,1013.6001,636.0488,1001.6001,648.0488,863.6118,648.0488,851.6118,636.0488,863.6118,624.0488" style="stroke:#333333;stroke-width:0.5;"/><text fill="#000000" font-family="sans-serif" font-size="12" lengthAdjust="spacing" textLength="15.6504" x="936.606" y="659.1875">да</text><text fill="#000000" font-family="sans-serif" font-size="12" lengthAdjust="spacing" textLength="137.9883" x="863.6118" y="640.2031">Подбор по симптому?</text><polygon fill="#F9F9F9" points="741.3193,970.5625,875.083,970.5625,887.083,982.5625,875.083,994.5625,741.3193,994.5625,729.3193,982.5625,741.3193,970.5625" style="stroke:#333333;stroke-width:0.5;"/><text fill="#000000" font-family="sans-serif" font-size="12" lengthAdjust="spacing" textLength="133.7637" x="741.3193" y="986.7168">Подтвердить приём?</text><text fill="#000000" font-family="sans-serif" font-size="12" lengthAdjust="spacing" textLength="15.6504" x="713.6689" y="979.7324">да</text><rect fill="#F9F9F9" height="33.9688" rx="12.5" ry="12.5" style="stroke:#333333;stroke-width:0.5;" width="103.8828" x="667.3779" y="1014.5625"/><text fill="#000000" font-family="sans-serif" font-size="12" lengthAdjust="spacing" textLength="83.8828" x="677.3779" y="1035.7012">Подтвердить</text><polygon fill="#F9F9F9" points="808.2012,1167.4688,820.2012,1179.4688,808.2012,1191.4688,796.2012,1179.4688,808.2012,1167.4688" style="stroke:#333333;stroke-width:0.5;"/><rect fill="#F9F9F9" height="33.9688" rx="12.5" ry="12.5" style="stroke:#333333;stroke-width:0.5;" width="178.7656" x="520.4419" y="1267.4375"/><text fill="#000000" font-family="sans-serif" font-size="12" lengthAdjust="spacing" textLength="158.7656" x="530.4419" y="1288.5762">Обновить главный экран</text><polygon fill="#F9F9F9" points="609.8247,526.0801,621.8247,538.0801,609.8247,550.0801,597.8247,538.0801,609.8247,526.0801" style="stroke:#333333;stroke-width:0.5;"/><polygon fill="#F9F9F9" points="566.6587,1321.4063,652.9907,1321.4063,664.9907,1333.4063,652.9907,1345.4063,566.6587,1345.4063,554.6587,1333.4063,566.6587,1321.4063" style="stroke:#333333;stroke-width:0.5;"/><text fill="#000000" font-family="sans-serif" font-size="12" lengthAdjust="spacing" textLength="86.332" x="566.6587" y="1337.5605">Продолжить?</text><text fill="#000000" font-family="sans-serif" font-size="12" lengthAdjust="spacing" textLength="15.6504" x="664.9907" y="1330.5762">да</text><line style="stroke:#000000;stroke-width:1.5;" x1="15" x2="15" y1="11.3301" y2="1459.2715"/><rect fill="#F9F9F9" height="33.9688" rx="12.5" ry="12.5" style="stroke:#333333;stroke-width:0.5;" width="139.9297" x="1394.4141" y="276.2051"/><text fill="#000000" font-family="sans-serif" font-size="12" lengthAdjust="spacing" textLength="119.9297" x="1404.4141" y="297.3438">Проверить данные</text><rect fill="#F9F9F9" height="33.9688" rx="12.5" ry="12.5" style="stroke:#333333;stroke-width:0.5;" width="146.9199" x="1390.9189" y="330.1738"/><text fill="#000000" font-family="sans-serif" font-size="12" lengthAdjust="spacing" textLength="126.9199" x="1400.9189" y="351.3125">Сохранить профиль</text><rect fill="#F9F9F9" height="33.9688" rx="12.5" ry="12.5" style="stroke:#333333;stroke-width:0.5;" width="144.418" x="1061.6001" y="940.5625"/><text fill="#000000" font-family="sans-serif" font-size="12" lengthAdjust="spacing" textLength="124.418" x="1071.6001" y="961.7012">Записать в аптечку</text><rect fill="#F9F9F9" height="33.9688" rx="12.5" ry="12.5" style="stroke:#333333;stroke-width:0.5;" width="119.3574" x="1247.3667" y="940.5625"/><text fill="#000000" font-family="sans-serif" font-size="12" lengthAdjust="spacing" textLength="99.3574" x="1257.3667" y="961.7012">Удалить запись</text><rect fill="#F9F9F9" height="33.9688" rx="12.5" ry="12.5" style="stroke:#333333;stroke-width:0.5;" width="132.9805" x="1170.4526" y="1124.5"/><text fill="#000000" font-family="sans-serif" font-size="12" lengthAdjust="spacing" textLength="112.9805" x="1180.4526" y="1145.6387">Обновить данные</text><rect fill="#F9F9F9" height="33.9688" rx="12.5" ry="12.5" style="stroke:#333333;stroke-width:0.5;" width="160.0215" x="1376.7241" y="734.6563"/><text fill="#000000" font-family="sans-serif" font-size="12" lengthAdjust="spacing" textLength="140.0215" x="1386.7241" y="755.7949">Сохранить изменения</text><rect fill="#F9F9F9" height="33.9688" rx="12.5" ry="12.5" style="stroke:#333333;stroke-width:0.5;" width="139.9297" x="1811.5762" y="734.6563"/><text fill="#000000" font-family="sans-serif" font-size="12" lengthAdjust="spacing" textLength="119.9297" x="1821.5762" y="755.7949">Выполнить подбор</text><polygon fill="#F9F9F9" points="1817.8379,857.5938,1945.2441,857.5938,1957.2441,869.5938,1945.2441,881.5938,1817.8379,881.5938,1805.8379,869.5938,1817.8379,857.5938" style="stroke:#333333;stroke-width:0.5;"/><text fill="#000000" font-family="sans-serif" font-size="12" lengthAdjust="spacing" textLength="127.4063" x="1817.8379" y="873.748">Найдено в аптечке?</text><text fill="#000000" font-family="sans-serif" font-size="12" lengthAdjust="spacing" textLength="15.6504" x="1790.1875" y="866.7637">да</text><text fill="#000000" font-family="sans-serif" font-size="12" lengthAdjust="spacing" textLength="22.2188" x="1957.2441" y="866.7637">нет</text><rect fill="#F9F9F9" height="33.9688" rx="12.5" ry="12.5" style="stroke:#333333;stroke-width:0.5;" width="178.168" x="1668.0522" y="901.5938"/><text fill="#000000" font-family="sans-serif" font-size="12" lengthAdjust="spacing" textLength="158.168" x="1678.0522" y="922.7324">Показать рекомендацию</text><rect fill="#F9F9F9" height="33.9688" rx="12.5" ry="12.5" style="stroke:#333333;stroke-width:0.5;" width="148.3848" x="1594.062" y="1068.5313"/><text fill="#000000" font-family="sans-serif" font-size="12" lengthAdjust="spacing" textLength="128.3848" x="1604.062" y="1089.6699">Списать количество</text><polygon fill="#F9F9F9" points="1881.541,1201.4688,1893.541,1213.4688,1881.541,1225.4688,1869.541,1213.4688,1881.541,1201.4688" style="stroke:#333333;stroke-width:0.5;"/><rect fill="#F9F9F9" height="33.9688" rx="12.5" ry="12.5" style="stroke:#333333;stroke-width:0.5;" width="140.5977" x="1488.4609" y="1383.3027"/><text fill="#000000" font-family="sans-serif" font-size="12" lengthAdjust="spacing" textLength="120.5977" x="1498.4609" y="1404.4414">Выйти из аккаунта</text><ellipse cx="1558.7598" cy="1448.2715" fill="none" rx="11" ry="11" style="stroke:#222222;stroke-width:1;"/><ellipse cx="1558.7598" cy="1448.2715" fill="#222222" rx="6" ry="6" style="stroke:#222222;stroke-width:1;"/><line style="stroke:#000000;stroke-width:1.5;" x1="1046.6001" x2="1046.6001" y1="11.3301" y2="1459.2715"/><rect fill="#F9F9F9" height="33.9688" rx="12.5" ry="12.5" style="stroke:#333333;stroke-width:0.5;" width="96.6699" x="2341.9019" y="384.1426"/><text fill="#000000" font-family="sans-serif" font-size="12" lengthAdjust="spacing" textLength="76.6699" x="2351.9019" y="405.2813">Запись в БД</text><rect fill="#F9F9F9" height="33.9688" rx="12.5" ry="12.5" style="stroke:#333333;stroke-width:0.5;" width="134.3633" x="2009.4629" y="1009.5313"/><text fill="#000000" font-family="sans-serif" font-size="12" lengthAdjust="spacing" textLength="114.3633" x="2019.4629" y="1030.6699">Сохранить запись</text><rect fill="#F9F9F9" height="33.9688" rx="12.5" ry="12.5" style="stroke:#333333;stroke-width:0.5;" width="111.9102" x="2193.9258" y="1009.5313"/><text fill="#000000" font-family="sans-serif" font-size="12" lengthAdjust="spacing" textLength="91.9102" x="2203.9258" y="1030.6699">Удалить из БД</text><rect fill="#F9F9F9" height="33.9688" rx="12.5" ry="12.5" style="stroke:#333333;stroke-width:0.5;" width="102.3887" x="2128.584" y="1193.4688"/><text fill="#000000" font-family="sans-serif" font-size="12" lengthAdjust="spacing" textLength="82.3887" x="2138.584" y="1214.6074">Обновить БД</text><rect fill="#F9F9F9" height="33.9688" rx="12.5" ry="12.5" style="stroke:#333333;stroke-width:0.5;" width="133.5137" x="2315.8359" y="680.6875"/><text fill="#000000" font-family="sans-serif" font-size="12" lengthAdjust="spacing" textLength="113.5137" x="2325.8359" y="701.8262">Изменить данные</text><rect fill="#F9F9F9" height="33.9688" rx="12.5" ry="12.5" style="stroke:#333333;stroke-width:0.5;" width="111.0137" x="2327.0859" y="788.625"/><text fill="#000000" font-family="sans-serif" font-size="12" lengthAdjust="spacing" textLength="91.0137" x="2337.0859" y="809.7637">Записать в БД</text><rect fill="#F9F9F9" height="33.9688" rx="12.5" ry="12.5" style="stroke:#333333;stroke-width:0.5;" width="132.6348" x="2614.4888" y="680.6875"/><text fill="#000000" font-family="sans-serif" font-size="12" lengthAdjust="spacing" textLength="112.6348" x="2624.4888" y="701.8262">Выбрать симптом</text><rect fill="#F9F9F9" height="33.9688" rx="12.5" ry="12.5" style="stroke:#333333;stroke-width:0.5;" width="105.043" x="2628.2847" y="788.625"/><text fill="#000000" font-family="sans-serif" font-size="12" lengthAdjust="spacing" textLength="85.043" x="2638.2847" y="809.7637">Чтение из БД</text><rect fill="#F9F9F9" height="33.9688" rx="12.5" ry="12.5" style="stroke:#333333;stroke-width:0.5;" width="134.6445" x="2459.3496" y="1123.5"/><text fill="#000000" font-family="sans-serif" font-size="12" lengthAdjust="spacing" textLength="114.6445" x="2469.3496" y="1144.6387">Обновить остаток</text><rect fill="#F9F9F9" height="33.9688" rx="12.5" ry="12.5" style="stroke:#333333;stroke-width:0.5;" width="82.5781" x="2603.9941" y="1014.5625"/><text fill="#000000" font-family="sans-serif" font-size="12" lengthAdjust="spacing" textLength="62.5781" x="2613.9941" y="1035.7012">Отменить</text><rect fill="#F9F9F9" height="33.9688" rx="12.5" ry="12.5" style="stroke:#333333;stroke-width:0.5;" width="177.2773" x="2716.5723" y="901.5938"/><text fill="#000000" font-family="sans-serif" font-size="12" lengthAdjust="spacing" textLength="157.2773" x="2726.5723" y="922.7324">Сообщить об отсутствии</text><line style="stroke:#000000;stroke-width:1.5;" x1="1994.4629" x2="1994.4629" y1="11.3301" y2="1459.2715"/><line style="stroke:#000000;stroke-width:1.5;" x1="2897.8496" x2="2897.8496" y1="11.3301" y2="1459.2715"/><line style="stroke:#333333;stroke-width:1;" x1="609.8247" x2="609.8247" y1="50.2988" y2="70.2988"/><polygon fill="#333333" points="605.8247,60.2988,609.8247,70.2988,613.8247,60.2988,609.8247,64.2988" style="stroke:#333333;stroke-width:1;"/><line style="stroke:#333333;stroke-width:1;" x1="515.4438" x2="515.4438" y1="202.2363" y2="222.2363"/><polygon fill="#333333" points="511.4438,212.2363,515.4438,222.2363,519.4438,212.2363,515.4438,216.2363" style="stroke:#333333;stroke-width:1;"/><line style="stroke:#333333;stroke-width:1;" x1="525.4438" x2="515.4438" y1="136.2676" y2="136.2676"/><line style="stroke:#333333;stroke-width:1;" x1="515.4438" x2="515.4438" y1="136.2676" y2="168.2676"/><polygon fill="#333333" points="511.4438,158.2676,515.4438,168.2676,519.4438,158.2676,515.4438,162.2676" style="stroke:#333333;stroke-width:1;"/><line style="stroke:#333333;stroke-width:1;" x1="694.2056" x2="704.2056" y1="136.2676" y2="136.2676"/><line style="stroke:#333333;stroke-width:1;" x1="704.2056" x2="704.2056" y1="136.2676" y2="168.2676"/><polygon fill="#333333" points="700.2056,158.2676,704.2056,168.2676,708.2056,158.2676,704.2056,162.2676" style="stroke:#333333;stroke-width:1;"/><line style="stroke:#333333;stroke-width:1;" x1="704.2056" x2="704.2056" y1="202.2363" y2="440.1113"/><line style="stroke:#333333;stroke-width:1;" x1="704.2056" x2="621.8247" y1="440.1113" y2="440.1113"/><polygon fill="#333333" points="631.8247,436.1113,621.8247,440.1113,631.8247,444.1113,627.8247,440.1113" style="stroke:#333333;stroke-width:1;"/><line style="stroke:#333333;stroke-width:1;" x1="609.8247" x2="609.8247" y1="104.2676" y2="124.2676"/><polygon fill="#333333" points="605.8247,114.2676,609.8247,124.2676,613.8247,114.2676,609.8247,118.2676" style="stroke:#333333;stroke-width:1;"/><line style="stroke:#333333;stroke-width:1;" x1="609.8247" x2="609.8247" y1="452.1113" y2="472.1113"/><polygon fill="#333333" points="605.8247,462.1113,609.8247,472.1113,613.8247,462.1113,609.8247,466.1113" style="stroke:#333333;stroke-width:1;"/><line style="stroke:#333333;stroke-width:1;" x1="234.2363" x2="234.2363" y1="714.6563" y2="734.6563"/><polygon fill="#333333" points="230.2363,724.6563,234.2363,734.6563,238.2363,724.6563,234.2363,728.6563" style="stroke:#333333;stroke-width:1;"/><line style="stroke:#333333;stroke-width:1;" x1="131.1025" x2="131.1025" y1="837.625" y2="871.5938"/><polygon fill="#333333" points="127.1025,861.5938,131.1025,871.5938,135.1025,861.5938,131.1025,865.5938" style="stroke:#333333;stroke-width:1;"/><line style="stroke:#333333;stroke-width:1;" x1="304.3389" x2="304.3389" y1="837.625" y2="871.5938"/><polygon fill="#333333" points="300.3389,861.5938,304.3389,871.5938,308.3389,861.5938,304.3389,865.5938" style="stroke:#333333;stroke-width:1;"/><line style="stroke:#333333;stroke-width:1;" x1="184.5986" x2="258.6328" y1="825.625" y2="825.625"/><polygon fill="#333333" points="248.6328,821.625,258.6328,825.625,248.6328,829.625,252.6328,825.625" style="stroke:#333333;stroke-width:1;"/><line style="stroke:#333333;stroke-width:1;" x1="234.2363" x2="234.2363" y1="768.625" y2="788.625"/><line style="stroke:#333333;stroke-width:1;" x1="234.2363" x2="131.1025" y1="788.625" y2="788.625"/><line style="stroke:#333333;stroke-width:1;" x1="131.1025" x2="131.1025" y1="788.625" y2="813.625"/><polygon fill="#333333" points="127.1025,803.625,131.1025,813.625,135.1025,803.625,131.1025,807.625" style="stroke:#333333;stroke-width:1;"/><line style="stroke:#333333;stroke-width:1;" x1="350.0449" x2="386.4727" y1="825.625" y2="825.625"/><line style="stroke:#333333;stroke-width:1;" x1="386.4727" x2="386.4727" y1="825.625" y2="1103.5"/><polygon fill="#333333" points="382.4727,1093.5,386.4727,1103.5,390.4727,1093.5,386.4727,1097.5" style="stroke:#333333;stroke-width:1;"/><line style="stroke:#333333;stroke-width:1;" x1="234.2363" x2="395.4727" y1="1103.5" y2="1103.5"/><line style="stroke:#333333;stroke-width:1;" x1="729.3193" x2="719.3193" y1="982.5625" y2="982.5625"/><line style="stroke:#333333;stroke-width:1;" x1="719.3193" x2="719.3193" y1="982.5625" y2="1014.5625"/><polygon fill="#333333" points="715.3193,1004.5625,719.3193,1014.5625,723.3193,1004.5625,719.3193,1008.5625" style="stroke:#333333;stroke-width:1;"/><line style="stroke:#333333;stroke-width:1;" x1="234.2363" x2="234.2363" y1="648.0488" y2="680.6875"/><polygon fill="#333333" points="230.2363,670.6875,234.2363,680.6875,238.2363,670.6875,234.2363,674.6875" style="stroke:#333333;stroke-width:1;"/><line style="stroke:#333333;stroke-width:1;" x1="318.4941" x2="410.4727" y1="636.0488" y2="636.0488"/><polygon fill="#333333" points="400.4727,632.0488,410.4727,636.0488,400.4727,640.0488,404.4727,636.0488" style="stroke:#333333;stroke-width:1;"/><line style="stroke:#333333;stroke-width:1;" x1="605.127" x2="851.6118" y1="636.0488" y2="636.0488"/><polygon fill="#333333" points="841.6118,632.0488,851.6118,636.0488,841.6118,640.0488,845.6118,636.0488" style="stroke:#333333;stroke-width:1;"/><line style="stroke:#333333;stroke-width:1;" x1="609.8247" x2="609.8247" y1="604.0488" y2="609.0488"/><line style="stroke:#333333;stroke-width:1;" x1="609.8247" x2="234.2363" y1="609.0488" y2="609.0488"/><line style="stroke:#333333;stroke-width:1;" x1="234.2363" x2="234.2363" y1="609.0488" y2="624.0488"/><polygon fill="#333333" points="230.2363,614.0488,234.2363,624.0488,238.2363,614.0488,234.2363,618.0488" style="stroke:#333333;stroke-width:1;"/><line style="stroke:#333333;stroke-width:1;" x1="1013.6001" x2="1027.6001" y1="636.0488" y2="636.0488"/><line style="stroke:#333333;stroke-width:1;" x1="1027.6001" x2="1027.6001" y1="636.0488" y2="1247.4375"/><polygon fill="#333333" points="1023.6001,1237.4375,1027.6001,1247.4375,1031.6001,1237.4375,1027.6001,1241.4375" style="stroke:#333333;stroke-width:1;"/><line style="stroke:#333333;stroke-width:1;" x1="609.8247" x2="1041.6001" y1="1247.4375" y2="1247.4375"/><line style="stroke:#333333;stroke-width:1;" x1="609.8247" x2="609.8247" y1="1247.4375" y2="1267.4375"/><polygon fill="#333333" points="605.8247,1257.4375,609.8247,1267.4375,613.8247,1257.4375,609.8247,1261.4375" style="stroke:#333333;stroke-width:1;"/><line style="stroke:#333333;stroke-width:1;" x1="609.8247" x2="609.8247" y1="550.0801" y2="570.0801"/><polygon fill="#333333" points="605.8247,560.0801,609.8247,570.0801,613.8247,560.0801,609.8247,564.0801" style="stroke:#333333;stroke-width:1;"/><line style="stroke:#333333;stroke-width:1;" x1="554.6587" x2="34" y1="1333.4063" y2="1333.4063"/><polygon fill="#333333" points="30,959.5781,34,949.5781,38,959.5781,34,955.5781" style="stroke:#333333;stroke-width:1;"/><line style="stroke:#333333;stroke-width:1;" x1="34" x2="34" y1="538.0801" y2="1333.4063"/><line style="stroke:#333333;stroke-width:1;" x1="34" x2="597.8247" y1="538.0801" y2="538.0801"/><polygon fill="#333333" points="587.8247,534.0801,597.8247,538.0801,587.8247,542.0801,591.8247,538.0801" style="stroke:#333333;stroke-width:1;"/><line style="stroke:#333333;stroke-width:1;" x1="609.8247" x2="609.8247" y1="1301.4063" y2="1321.4063"/><polygon fill="#333333" points="605.8247,1311.4063,609.8247,1321.4063,613.8247,1311.4063,609.8247,1315.4063" style="stroke:#333333;stroke-width:1;"/><line style="stroke:#333333;stroke-width:1;" x1="609.8247" x2="609.8247" y1="506.0801" y2="526.0801"/><polygon fill="#333333" points="605.8247,516.0801,609.8247,526.0801,613.8247,516.0801,609.8247,520.0801" style="stroke:#333333;stroke-width:1;"/><line style="stroke:#333333;stroke-width:1;" x1="1464.3789" x2="1464.3789" y1="310.1738" y2="330.1738"/><polygon fill="#333333" points="1460.3789,320.1738,1464.3789,330.1738,1468.3789,320.1738,1464.3789,324.1738" style="stroke:#333333;stroke-width:1;"/><line style="stroke:#333333;stroke-width:1;" x1="1051.6001" x2="1371.7241" y1="1103.5" y2="1103.5"/><line style="stroke:#333333;stroke-width:1;" x1="1805.8379" x2="1757.1362" y1="869.5938" y2="869.5938"/><line style="stroke:#333333;stroke-width:1;" x1="1757.1362" x2="1757.1362" y1="869.5938" y2="901.5938"/><polygon fill="#333333" points="1753.1362,891.5938,1757.1362,901.5938,1761.1362,891.5938,1757.1362,895.5938" style="stroke:#333333;stroke-width:1;"/><line style="stroke:#333333;stroke-width:1;" x1="1881.541" x2="1881.541" y1="1225.4688" y2="1247.4375"/><polygon fill="#333333" points="1877.541,1237.4375,1881.541,1247.4375,1885.541,1237.4375,1881.541,1241.4375" style="stroke:#333333;stroke-width:1;"/><line style="stroke:#333333;stroke-width:1;" x1="1051.6001" x2="1989.4629" y1="1247.4375" y2="1247.4375"/><line style="stroke:#333333;stroke-width:1;" x1="1558.7598" x2="1558.7598" y1="1417.2715" y2="1437.2715"/><polygon fill="#333333" points="1554.7598,1427.2715,1558.7598,1437.2715,1562.7598,1427.2715,1558.7598,1431.2715" style="stroke:#333333;stroke-width:1;"/><line style="stroke:#333333;stroke-width:1;" x1="2076.6445" x2="2076.6445" y1="1043.5" y2="1103.5"/><polygon fill="#333333" points="2072.6445,1093.5,2076.6445,1103.5,2080.6445,1093.5,2076.6445,1097.5" style="stroke:#333333;stroke-width:1;"/><line style="stroke:#333333;stroke-width:1;" x1="2249.8809" x2="2249.8809" y1="1043.5" y2="1103.5"/><polygon fill="#333333" points="2245.8809,1093.5,2249.8809,1103.5,2253.8809,1093.5,2249.8809,1097.5" style="stroke:#333333;stroke-width:1;"/><line style="stroke:#333333;stroke-width:1;" x1="1999.4629" x2="2249.8809" y1="1103.5" y2="1103.5"/><line style="stroke:#333333;stroke-width:1;" x1="2179.7783" x2="2179.7783" y1="1227.4375" y2="1247.4375"/><polygon fill="#333333" points="2175.7783,1237.4375,2179.7783,1247.4375,2183.7783,1237.4375,2179.7783,1241.4375" style="stroke:#333333;stroke-width:1;"/><line style="stroke:#333333;stroke-width:1;" x1="2382.5928" x2="2382.5928" y1="822.5938" y2="1247.4375"/><polygon fill="#333333" points="2378.5928,1237.4375,2382.5928,1247.4375,2386.5928,1237.4375,2382.5928,1241.4375" style="stroke:#333333;stroke-width:1;"/><line style="stroke:#333333;stroke-width:1;" x1="1999.4629" x2="2454.3496" y1="1247.4375" y2="1247.4375"/><line style="stroke:#333333;stroke-width:1;" x1="515.4438" x2="515.4438" y1="256.2051" y2="261.2051"/><line style="stroke:#333333;stroke-width:1;" x1="515.4438" x2="1464.3789" y1="261.2051" y2="261.2051"/><line style="stroke:#333333;stroke-width:1;" x1="1464.3789" x2="1464.3789" y1="261.2051" y2="276.2051"/><polygon fill="#333333" points="1460.3789,266.2051,1464.3789,276.2051,1468.3789,266.2051,1464.3789,270.2051" style="stroke:#333333;stroke-width:1;"/><line style="stroke:#333333;stroke-width:1;" x1="1464.3789" x2="1464.3789" y1="364.1426" y2="369.1426"/><line style="stroke:#333333;stroke-width:1;" x1="1464.3789" x2="2390.2368" y1="369.1426" y2="369.1426"/><line style="stroke:#333333;stroke-width:1;" x1="2390.2368" x2="2390.2368" y1="369.1426" y2="384.1426"/><polygon fill="#333333" points="2386.2368,374.1426,2390.2368,384.1426,2394.2368,374.1426,2390.2368,378.1426" style="stroke:#333333;stroke-width:1;"/><line style="stroke:#333333;stroke-width:1;" x1="2390.2368" x2="2390.2368" y1="418.1113" y2="422.1113"/><line style="stroke:#333333;stroke-width:1;" x1="2390.2368" x2="579.8247" y1="422.1113" y2="422.1113"/><line style="stroke:#333333;stroke-width:1;" x1="579.8247" x2="579.8247" y1="422.1113" y2="440.1113"/><line style="stroke:#333333;stroke-width:1;" x1="579.8247" x2="597.8247" y1="440.1113" y2="440.1113"/><polygon fill="#333333" points="587.8247,436.1113,597.8247,440.1113,587.8247,444.1113,591.8247,440.1113" style="stroke:#333333;stroke-width:1;"/><line style="stroke:#333333;stroke-width:1;" x1="131.1025" x2="131.1025" y1="905.5625" y2="923.0625"/><line style="stroke:#333333;stroke-width:1;" x1="131.1025" x2="1133.8091" y1="923.0625" y2="923.0625"/><line style="stroke:#333333;stroke-width:1;" x1="1133.8091" x2="1133.8091" y1="923.0625" y2="940.5625"/><polygon fill="#333333" points="1129.8091,930.5625,1133.8091,940.5625,1137.8091,930.5625,1133.8091,934.5625" style="stroke:#333333;stroke-width:1;"/><line style="stroke:#333333;stroke-width:1;" x1="1133.8091" x2="1133.8091" y1="974.5313" y2="992.0313"/><line style="stroke:#333333;stroke-width:1;" x1="1133.8091" x2="2076.6445" y1="992.0313" y2="992.0313"/><line style="stroke:#333333;stroke-width:1;" x1="2076.6445" x2="2076.6445" y1="992.0313" y2="1009.5313"/><polygon fill="#333333" points="2072.6445,999.5313,2076.6445,1009.5313,2080.6445,999.5313,2076.6445,1003.5313" style="stroke:#333333;stroke-width:1;"/><line style="stroke:#333333;stroke-width:1;" x1="304.3389" x2="304.3389" y1="905.5625" y2="923.0625"/><line style="stroke:#333333;stroke-width:1;" x1="304.3389" x2="1307.0454" y1="923.0625" y2="923.0625"/><line style="stroke:#333333;stroke-width:1;" x1="1307.0454" x2="1307.0454" y1="923.0625" y2="940.5625"/><polygon fill="#333333" points="1303.0454,930.5625,1307.0454,940.5625,1311.0454,930.5625,1307.0454,934.5625" style="stroke:#333333;stroke-width:1;"/><line style="stroke:#333333;stroke-width:1;" x1="1307.0454" x2="1307.0454" y1="974.5313" y2="992.0313"/><line style="stroke:#333333;stroke-width:1;" x1="1307.0454" x2="2249.8809" y1="992.0313" y2="992.0313"/><line style="stroke:#333333;stroke-width:1;" x1="2249.8809" x2="2249.8809" y1="992.0313" y2="1009.5313"/><polygon fill="#333333" points="2245.8809,999.5313,2249.8809,1009.5313,2253.8809,999.5313,2249.8809,1003.5313" style="stroke:#333333;stroke-width:1;"/><line style="stroke:#333333;stroke-width:1;" x1="234.2363" x2="234.2363" y1="1103.5" y2="1108.5"/><line style="stroke:#333333;stroke-width:1;" x1="234.2363" x2="1236.9429" y1="1108.5" y2="1108.5"/><line style="stroke:#333333;stroke-width:1;" x1="1236.9429" x2="1236.9429" y1="1108.5" y2="1124.5"/><polygon fill="#333333" points="1232.9429,1114.5,1236.9429,1124.5,1240.9429,1114.5,1236.9429,1118.5" style="stroke:#333333;stroke-width:1;"/><line style="stroke:#333333;stroke-width:1;" x1="1236.9429" x2="1236.9429" y1="1158.4688" y2="1175.9688"/><line style="stroke:#333333;stroke-width:1;" x1="1236.9429" x2="2179.7783" y1="1175.9688" y2="1175.9688"/><line style="stroke:#333333;stroke-width:1;" x1="2179.7783" x2="2179.7783" y1="1175.9688" y2="1193.4688"/><polygon fill="#333333" points="2175.7783,1183.4688,2179.7783,1193.4688,2183.7783,1183.4688,2179.7783,1187.4688" style="stroke:#333333;stroke-width:1;"/><line style="stroke:#333333;stroke-width:1;" x1="2382.5928" x2="2382.5928" y1="714.6563" y2="719.6563"/><line style="stroke:#333333;stroke-width:1;" x1="2382.5928" x2="1456.7349" y1="719.6563" y2="719.6563"/><line style="stroke:#333333;stroke-width:1;" x1="1456.7349" x2="1456.7349" y1="719.6563" y2="734.6563"/><polygon fill="#333333" points="1452.7349,724.6563,1456.7349,734.6563,1460.7349,724.6563,1456.7349,728.6563" style="stroke:#333333;stroke-width:1;"/><line style="stroke:#333333;stroke-width:1;" x1="1456.7349" x2="1456.7349" y1="768.625" y2="773.625"/><line style="stroke:#333333;stroke-width:1;" x1="1456.7349" x2="2382.5928" y1="773.625" y2="773.625"/><line style="stroke:#333333;stroke-width:1;" x1="2382.5928" x2="2382.5928" y1="773.625" y2="788.625"/><polygon fill="#333333" points="2378.5928,778.625,2382.5928,788.625,2386.5928,778.625,2382.5928,782.625" style="stroke:#333333;stroke-width:1;"/><line style="stroke:#333333;stroke-width:1;" x1="2680.8062" x2="2680.8062" y1="714.6563" y2="719.6563"/><line style="stroke:#333333;stroke-width:1;" x1="2680.8062" x2="1881.541" y1="719.6563" y2="719.6563"/><line style="stroke:#333333;stroke-width:1;" x1="1881.541" x2="1881.541" y1="719.6563" y2="734.6563"/><polygon fill="#333333" points="1877.541,724.6563,1881.541,734.6563,1885.541,724.6563,1881.541,728.6563" style="stroke:#333333;stroke-width:1;"/><line style="stroke:#333333;stroke-width:1;" x1="1881.541" x2="1881.541" y1="768.625" y2="773.625"/><line style="stroke:#333333;stroke-width:1;" x1="1881.541" x2="2680.8062" y1="773.625" y2="773.625"/><line style="stroke:#333333;stroke-width:1;" x1="2680.8062" x2="2680.8062" y1="773.625" y2="788.625"/><polygon fill="#333333" points="2676.8062,778.625,2680.8062,788.625,2684.8062,778.625,2680.8062,782.625" style="stroke:#333333;stroke-width:1;"/><line style="stroke:#333333;stroke-width:1;" x1="719.3193" x2="719.3193" y1="1048.5313" y2="1053.5313"/><line style="stroke:#333333;stroke-width:1;" x1="719.3193" x2="1668.2544" y1="1053.5313" y2="1053.5313"/><line style="stroke:#333333;stroke-width:1;" x1="1668.2544" x2="1668.2544" y1="1053.5313" y2="1068.5313"/><polygon fill="#333333" points="1664.2544,1058.5313,1668.2544,1068.5313,1672.2544,1058.5313,1668.2544,1062.5313" style="stroke:#333333;stroke-width:1;"/><line style="stroke:#333333;stroke-width:1;" x1="1668.2544" x2="1668.2544" y1="1102.5" y2="1108.5"/><line style="stroke:#333333;stroke-width:1;" x1="1668.2544" x2="2526.6719" y1="1108.5" y2="1108.5"/><line style="stroke:#333333;stroke-width:1;" x1="2526.6719" x2="2526.6719" y1="1108.5" y2="1123.5"/><polygon fill="#333333" points="2522.6719,1113.5,2526.6719,1123.5,2530.6719,1113.5,2526.6719,1117.5" style="stroke:#333333;stroke-width:1;"/><line style="stroke:#333333;stroke-width:1;" x1="887.083" x2="2645.2832" y1="982.5625" y2="982.5625"/><line style="stroke:#333333;stroke-width:1;" x1="2645.2832" x2="2645.2832" y1="982.5625" y2="1014.5625"/><polygon fill="#333333" points="2641.2832,1004.5625,2645.2832,1014.5625,2649.2832,1004.5625,2645.2832,1008.5625" style="stroke:#333333;stroke-width:1;"/><line style="stroke:#333333;stroke-width:1;" x1="2526.6719" x2="2526.6719" y1="1157.4688" y2="1161.4688"/><line style="stroke:#333333;stroke-width:1;" x1="2526.6719" x2="778.2012" y1="1161.4688" y2="1161.4688"/><line style="stroke:#333333;stroke-width:1;" x1="778.2012" x2="778.2012" y1="1161.4688" y2="1179.4688"/><line style="stroke:#333333;stroke-width:1;" x1="778.2012" x2="796.2012" y1="1179.4688" y2="1179.4688"/><polygon fill="#333333" points="786.2012,1175.4688,796.2012,1179.4688,786.2012,1183.4688,790.2012,1179.4688" style="stroke:#333333;stroke-width:1;"/><line style="stroke:#333333;stroke-width:1;" x1="2645.2832" x2="2645.2832" y1="1048.5313" y2="1179.4688"/><line style="stroke:#333333;stroke-width:1;" x1="2645.2832" x2="820.2012" y1="1179.4688" y2="1179.4688"/><polygon fill="#333333" points="830.2012,1175.4688,820.2012,1179.4688,830.2012,1183.4688,826.2012,1179.4688" style="stroke:#333333;stroke-width:1;"/><line style="stroke:#333333;stroke-width:1;" x1="1757.1362" x2="1757.1362" y1="935.5625" y2="953.0625"/><line style="stroke:#333333;stroke-width:1;" x1="1757.1362" x2="808.2012" y1="953.0625" y2="953.0625"/><line style="stroke:#333333;stroke-width:1;" x1="808.2012" x2="808.2012" y1="953.0625" y2="970.5625"/><polygon fill="#333333" points="804.2012,960.5625,808.2012,970.5625,812.2012,960.5625,808.2012,964.5625" style="stroke:#333333;stroke-width:1;"/><line style="stroke:#333333;stroke-width:1;" x1="1957.2441" x2="2805.2109" y1="869.5938" y2="869.5938"/><line style="stroke:#333333;stroke-width:1;" x1="2805.2109" x2="2805.2109" y1="869.5938" y2="901.5938"/><polygon fill="#333333" points="2801.2109,891.5938,2805.2109,901.5938,2809.2109,891.5938,2805.2109,895.5938" style="stroke:#333333;stroke-width:1;"/><line style="stroke:#333333;stroke-width:1;" x1="808.2012" x2="808.2012" y1="1191.4688" y2="1213.4688"/><line style="stroke:#333333;stroke-width:1;" x1="808.2012" x2="1869.541" y1="1213.4688" y2="1213.4688"/><polygon fill="#333333" points="1859.541,1209.4688,1869.541,1213.4688,1859.541,1217.4688,1863.541,1213.4688" style="stroke:#333333;stroke-width:1;"/><line style="stroke:#333333;stroke-width:1;" x1="2805.2109" x2="2805.2109" y1="935.5625" y2="1213.4688"/><line style="stroke:#333333;stroke-width:1;" x1="2805.2109" x2="1893.541" y1="1213.4688" y2="1213.4688"/><polygon fill="#333333" points="1903.541,1209.4688,1893.541,1213.4688,1903.541,1217.4688,1899.541,1213.4688" style="stroke:#333333;stroke-width:1;"/><line style="stroke:#333333;stroke-width:1;" x1="2680.8062" x2="2680.8062" y1="822.5938" y2="840.0938"/><line style="stroke:#333333;stroke-width:1;" x1="2680.8062" x2="1881.541" y1="840.0938" y2="840.0938"/><line style="stroke:#333333;stroke-width:1;" x1="1881.541" x2="1881.541" y1="840.0938" y2="857.5938"/><polygon fill="#333333" points="1877.541,847.5938,1881.541,857.5938,1885.541,847.5938,1881.541,851.5938" style="stroke:#333333;stroke-width:1;"/><line style="stroke:#333333;stroke-width:1;" x1="507.7998" x2="507.7998" y1="648.0488" y2="652.0488"/><line style="stroke:#333333;stroke-width:1;" x1="507.7998" x2="2382.5928" y1="652.0488" y2="652.0488"/><line style="stroke:#333333;stroke-width:1;" x1="2382.5928" x2="2382.5928" y1="652.0488" y2="680.6875"/><polygon fill="#333333" points="2378.5928,670.6875,2382.5928,680.6875,2386.5928,670.6875,2382.5928,674.6875" style="stroke:#333333;stroke-width:1;"/><line style="stroke:#333333;stroke-width:1;" x1="932.606" x2="932.606" y1="648.0488" y2="652.0488"/><line style="stroke:#333333;stroke-width:1;" x1="932.606" x2="2680.8062" y1="652.0488" y2="652.0488"/><line style="stroke:#333333;stroke-width:1;" x1="2680.8062" x2="2680.8062" y1="652.0488" y2="680.6875"/><polygon fill="#333333" points="2676.8062,670.6875,2680.8062,680.6875,2684.8062,670.6875,2680.8062,674.6875" style="stroke:#333333;stroke-width:1;"/><line style="stroke:#333333;stroke-width:1;" x1="609.8247" x2="609.8247" y1="1345.4063" y2="1368.3027"/><line style="stroke:#333333;stroke-width:1;" x1="609.8247" x2="1558.7598" y1="1368.3027" y2="1368.3027"/><line style="stroke:#333333;stroke-width:1;" x1="1558.7598" x2="1558.7598" y1="1368.3027" y2="1383.3027"/><polygon fill="#333333" points="1554.7598,1373.3027,1558.7598,1383.3027,1562.7598,1373.3027,1558.7598,1377.3027" style="stroke:#333333;stroke-width:1;"/><text fill="#000000" font-family="sans-serif" font-size="12" lengthAdjust="spacing" textLength="22.2188" x="613.8247" y="1361.8027">нет</text><text fill="#000000" font-family="sans-serif" font-size="12" lengthAdjust="spacing" textLength="88.3711" x="486.6145" y="22.4688">Пользователь</text><text fill="#000000" font-family="sans-serif" font-size="12" lengthAdjust="spacing" textLength="45.4512" x="1497.8059" y="22.4688">Сервер</text><text fill="#000000" font-family="sans-serif" font-size="12" lengthAdjust="spacing" textLength="81.0527" x="2405.6299" y="22.4688">База данных</text><!--SRC=[ZLR1RjD04BtxArRYGWy8GK_44WXG-mDyGTIur6g8AyUb0eAK9fGAjL0LAi452kB0DKsJnacRv1Ts_uWtisidJjPfrDHnrZjltioRcNLrsw_i5CFYAr7oDekxvMWzg4Gl_BUUUF3GgQOFYnkH_zgFteXtZX3FYXlRByDWjr9w7fI3KDnPVqH_z2G8IrveLbTNLx7qD0o3lQcLzrEek4P-v0ULEJlRdbclQsjhZbEJvt8ahzMnxE6xBLkg8Rlqk-PK8vWw1VaBImDLLqUgeOw57AkwZEKrTbzXvn3tNTTn_4rnL_wb9G6a5lPqvQMCrJwCi1__Z2w7JrP4jELLi7iekwgnWX0BygiwacFYGNZiPWQWfJxY_elBkxy39xkRIOtK1o96FtkoWv_iKnsh4p8JeYR_m6CTD72j8R1pmwhB31cdGnJb47GGL0468tL0xdCy4N1Ddk8vOfwoLWU4htbI2B1h2-mxGwR88ZVdNhdg8JK0oaiC8Zh0GiTrl4h9troeO45-WsKBYnHHNwZF92IH18_Gs_6AKUhbWhDiaj2LVKey35bT8V0n2eyPe0rS8xwWACcdEfG3CEXF53PXa0lYED1vqlhkwzJGic2m0LMDzkeQ8wgy6wgIRFBt-Nh818nKj9ylpF8Cg1TPbXPI73dBJqvZWOqZTbU_ZrkYsjR29mxcIYX1IOLECjZE94Kr9_RsMac0BFNMcnJH12LNSNfCDMJ48YUtfY0Zlch2Muk5R6UPMoDFN2mYkpZa6OHOzaoZB1Shzq0EGHGGoc38ThR-lesUnTumIrFy6sJ8Ri0rcWuvtHVJe-B4sXK_uFb6wvFBpnAMfKpY54cZdImJdgrkPoEaz7UG1enJGQE8EZU6Awfkj8jgMWERAQgCoOB0BEDkFF6_J4Z_k3wC0DbYidZa27y2fSz33rBFzcvksymDj3hFi95HeJDzP2rHo8OBPvi7Bp7jJC-zM9tA6okPXCwSePjkiBQlBgLC0Gmu-J4DLtC0ZAP15hMojLz6ZD9YuGS94jNMj96UyedawQwqjSsXcBulf4r0OrvzIdt92tBOWCicN_Nv5RkPIP5yExT8OWdcClSmrMUfsDlooyHKlrXqE9TNsXh2-TL4jdkFXOx6fUDxvgs4Ug2l3oIkNnh6T3OsuHUfTF5U5kpy1m00]--></g></svg>