<svg xmlns="http://www.w3.org/2000/svg" xmlns:xlink="http://www.w3.org/1999/xlink" version="1.1" width="2380" height="1700" style="width: 2380px; height: 1700px; background: #ffffff" viewBox="0 0 2380 1700"><style id="v-3" type="text/css">        .joint-element .scalable * {            vector-effect: non-scaling-stroke;        }    </style><defs joint-selector="defs"><marker id="v-21252848929" orient="auto" overflow="visible" markerUnits="userSpaceOnUse"><path id="v-78" stroke="#444444" fill="#444444" transform="rotate(180)" d="M 20 -10 0 0 20 10 Z"></path></marker></defs><g  joint-selector="layers" transform="matrix(1,0,0,1,0,0)"><g style="pointer-events: none;" ></g><g ></g><g  style="user-select: none;"><!--z-index:1--><!--z-index:2--><!--z-index:3--><!--z-index:4--><!--z-index:5--><!--z-index:6--><!--z-index:7--><!--z-index:8--><!--z-index:9--><!--z-index:10--><!--z-index:11--><!--z-index:12--><!--z-index:13--><g   id="j_2"  transform="translate(20,1656)"><g id="v-6"><text  id="v-7" font-size="24px" xml:space="preserve" y="0.8em" font-weight="normal" text-anchor="start" fill="#444444" pointer-events="none" display="block" font-family="Tahoma, Verdana, Helvetica, Arial"><tspan  dy="0">четверг, 14 мая 2026 г. в 16:24 Москва, стандартное время</tspan></text></g></g><!--z-index:14--><g   id="j_1"  transform="translate(20,1610)"><g id="v-4"><text  id="v-5" font-size="36px" xml:space="preserve" y="0.8em" font-weight="normal" text-anchor="start" fill="#444444" pointer-events="none" display="block" font-family="Tahoma, Verdana, Helvetica, Arial"><tspan  dy="0">System Context View: MyPills</tspan></text></g></g><!--z-index:15--><g   id="j_3"  transform="translate(199,159)" style=""><g  id="v-8" style="opacity: 1;"><rect  x="0" y="160" width="400" height="240" rx="70" id="v-10" stroke-width="2" pointer-events="visiblePainted" fill="#08427b" stroke="#073b6f" stroke-dasharray="" style="fill: rgb(8, 66, 123); stroke: rgb(7, 59, 111);"></rect><circle  cx="200" cy="88.88888888888889" r="88.88888888888889" id="v-9" stroke-width="2" pointer-events="visiblePainted" fill="#08427b" stroke="#073b6f" stroke-dasharray="" style="fill: rgb(8, 66, 123); stroke: rgb(7, 59, 111);"></circle><line  x1="80" y1="266.6666666666667" x2="80" y2="400" id="v-16" stroke="#073b6f" stroke-width="1" stroke-dasharray="" style="stroke: rgb(7, 59, 111);"></line><line  x1="320" y1="266.6666666666667" x2="320" y2="400" id="v-17" stroke="#073b6f" stroke-width="1" stroke-dasharray="" style="stroke: rgb(7, 59, 111);"></line><text  id="v-11" font-size="33.599999999999994px" xml:space="preserve" y="250.8" font-weight="bold" text-anchor="middle" pointer-events="visible" font-family="Tahoma, Verdana, Helvetica, Arial" fill="#ffffff" dominant-baseline="hanging" transform="matrix(1,0,0,1,200,0)" style="fill: rgb(255, 255, 255);"><tspan  dy="0">Пользователь</tspan></text><text  id="v-12" font-size="16.799999999999997px" xml:space="preserve" y="292.4" text-anchor="middle" font-family="Tahoma, Verdana, Helvetica, Arial" fill="#ffffff" dominant-baseline="hanging" transform="matrix(1,0,0,1,200,0)" style="display: block; fill: rgb(255, 255, 255);"><tspan  dy="0">[Person]</tspan></text><text  id="v-13" font-size="24px" xml:space="preserve" display="none" y="250.8" text-anchor="middle" font-family="Tahoma, Verdana, Helvetica, Arial" fill="#ffffff" dominant-baseline="hanging" transform="matrix(1,0,0,1,200,0)" style="display: block; fill: rgb(255, 255, 255);"><tspan style="fill-opacity: 0; stroke-opacity: 0;"  dy="0">-</tspan></text><g  id="v-14" font-weight="normal" text-anchor="middle" color="#ffffff" transform="matrix(1,0,0,1,197.5,368)" style="fill: rgb(255, 255, 255);" display="none"><g ></g><g ></g><g ></g><g ></g></g><image  id="v-15"></image></g></g><!--z-index:16--><g   id="j_4"  transform="translate(199,609)" style=""><g  id="v-18" style="opacity: 1;"><rect  x="0" y="160" width="400" height="240" rx="70" id="v-20" stroke-width="2" pointer-events="visiblePainted" fill="#08427b" stroke="#073b6f" stroke-dasharray="" style="fill: rgb(8, 66, 123); stroke: rgb(7, 59, 111);"></rect><circle  cx="200" cy="88.88888888888889" r="88.88888888888889" id="v-19" stroke-width="2" pointer-events="visiblePainted" fill="#08427b" stroke="#073b6f" stroke-dasharray="" style="fill: rgb(8, 66, 123); stroke: rgb(7, 59, 111);"></circle><line  x1="80" y1="266.6666666666667" x2="80" y2="400" id="v-26" stroke="#073b6f" stroke-width="1" stroke-dasharray="" style="stroke: rgb(7, 59, 111);"></line><line  x1="320" y1="266.6666666666667" x2="320" y2="400" id="v-27" stroke="#073b6f" stroke-width="1" stroke-dasharray="" style="stroke: rgb(7, 59, 111);"></line><text  id="v-21" font-size="33.599999999999994px" xml:space="preserve" y="250.8" font-weight="bold" text-anchor="middle" pointer-events="visible" font-family="Tahoma, Verdana, Helvetica, Arial" fill="#ffffff" dominant-baseline="hanging" transform="matrix(1,0,0,1,200,0)" style="fill: rgb(255, 255, 255);"><tspan  dy="0">Администратор</tspan></text><text  id="v-22" font-size="16.799999999999997px" xml:space="preserve" y="292.4" text-anchor="middle" font-family="Tahoma, Verdana, Helvetica, Arial" fill="#ffffff" dominant-baseline="hanging" transform="matrix(1,0,0,1,200,0)" style="display: block; fill: rgb(255, 255, 255);"><tspan  dy="0">[Person]</tspan></text><text  id="v-23" font-size="24px" xml:space="preserve" display="none" y="250.8" text-anchor="middle" font-family="Tahoma, Verdana, Helvetica, Arial" fill="#ffffff" dominant-baseline="hanging" transform="matrix(1,0,0,1,200,0)" style="display: block; fill: rgb(255, 255, 255);"><tspan style="fill-opacity: 0; stroke-opacity: 0;"  dy="0">-</tspan></text><g  id="v-24" font-weight="normal" text-anchor="middle" color="#ffffff" transform="matrix(1,0,0,1,197.5,368)" style="fill: rgb(255, 255, 255);" display="none"><g ></g><g ></g><g ></g><g ></g></g><image  id="v-25"></image></g></g><!--z-index:17--><g   id="j_5"  transform="translate(199,1059)" style=""><g  id="v-28" style="opacity: 1;"><rect  x="0" y="160" width="400" height="240" rx="70" id="v-30" stroke-width="2" pointer-events="visiblePainted" fill="#08427b" stroke="#073b6f" stroke-dasharray="" style="fill: rgb(8, 66, 123); stroke: rgb(7, 59, 111);"></rect><circle  cx="200" cy="88.88888888888889" r="88.88888888888889" id="v-29" stroke-width="2" pointer-events="visiblePainted" fill="#08427b" stroke="#073b6f" stroke-dasharray="" style="fill: rgb(8, 66, 123); stroke: rgb(7, 59, 111);"></circle><line  x1="80" y1="266.6666666666667" x2="80" y2="400" id="v-36" stroke="#073b6f" stroke-width="1" stroke-dasharray="" style="stroke: rgb(7, 59, 111);"></line><line  x1="320" y1="266.6666666666667" x2="320" y2="400" id="v-37" stroke="#073b6f" stroke-width="1" stroke-dasharray="" style="stroke: rgb(7, 59, 111);"></line><text  id="v-31" font-size="33.599999999999994px" xml:space="preserve" y="250.8" font-weight="bold" text-anchor="middle" pointer-events="visible" font-family="Tahoma, Verdana, Helvetica, Arial" fill="#ffffff" dominant-baseline="hanging" transform="matrix(1,0,0,1,200,0)" style="fill: rgb(255, 255, 255);"><tspan  dy="0">Гость</tspan></text><text  id="v-32" font-size="16.799999999999997px" xml:space="preserve" y="292.4" text-anchor="middle" font-family="Tahoma, Verdana, Helvetica, Arial" fill="#ffffff" dominant-baseline="hanging" transform="matrix(1,0,0,1,200,0)" style="display: block; fill: rgb(255, 255, 255);"><tspan  dy="0">[Person]</tspan></text><text  id="v-33" font-size="24px" xml:space="preserve" display="none" y="250.8" text-anchor="middle" font-family="Tahoma, Verdana, Helvetica, Arial" fill="#ffffff" dominant-baseline="hanging" transform="matrix(1,0,0,1,200,0)" style="display: block; fill: rgb(255, 255, 255);"><tspan style="fill-opacity: 0; stroke-opacity: 0;"  dy="0">-</tspan></text><g  id="v-34" font-weight="normal" text-anchor="middle" color="#ffffff" transform="matrix(1,0,0,1,197.5,368)" style="fill: rgb(255, 255, 255);" display="none"><g ></g><g ></g><g ></g><g ></g></g><image  id="v-35"></image></g></g><!--z-index:18--><g   id="j_6"  transform="translate(1729,484)" style=""><g  id="v-41" style="opacity: 1;"><rect  id="v-42" rx="20" ry="20" stroke-width="5" pointer-events="visiblePainted" fill="#5895d1" stroke="#b8b8b8" stroke-dasharray="" width="450" height="300" style="fill: rgb(88, 149, 209); stroke: rgb(184, 184, 184);"></rect><text  id="v-43" font-size="33.599999999999994px" xml:space="preserve" y="120.80000000000001" font-weight="bold" text-anchor="middle" pointer-events="visible" font-family="Tahoma, Verdana, Helvetica, Arial" fill="#ffffff" dominant-baseline="hanging" transform="matrix(1,0,0,1,225,0)" style="fill: rgb(255, 255, 255);"><tspan  dy="0">Сервис онлайн-аптеки</tspan></text><text  id="v-44" font-size="16.799999999999997px" xml:space="preserve" y="162.4" text-anchor="middle" font-family="Tahoma, Verdana, Helvetica, Arial" fill="#ffffff" dominant-baseline="hanging" transform="matrix(1,0,0,1,225,0)" style="display: block; fill: rgb(255, 255, 255);"><tspan  dy="0">[Software System]</tspan></text><text  id="v-45" font-size="24px" xml:space="preserve" display="none" y="120.80000000000001" text-anchor="middle" font-family="Tahoma, Verdana, Helvetica, Arial" fill="#ffffff" dominant-baseline="hanging" transform="matrix(1,0,0,1,225,0)" style="display: block; fill: rgb(255, 255, 255);"><tspan style="fill-opacity: 0; stroke-opacity: 0;"  dy="0">-</tspan></text><g  id="v-46" color="#ffffff" transform="matrix(1,0,0,1,222.5,268)" style="fill: rgb(255, 255, 255);" display="none"><g ></g><g ></g><g ></g><g ></g></g><image  id="v-47"></image></g></g><!--z-index:19--><g   id="j_7"  transform="translate(1729,834)" style=""><g  id="v-51" style="opacity: 1;"><rect  id="v-52" rx="20" ry="20" stroke-width="5" pointer-events="visiblePainted" fill="#5895d1" stroke="#b8b8b8" stroke-dasharray="" width="450" height="300" style="fill: rgb(88, 149, 209); stroke: rgb(184, 184, 184);"></rect><text  id="v-53" font-size="33.599999999999994px" xml:space="preserve" y="120.80000000000001" font-weight="bold" text-anchor="middle" pointer-events="visible" font-family="Tahoma, Verdana, Helvetica, Arial" fill="#ffffff" dominant-baseline="hanging" transform="matrix(1,0,0,1,225,0)" style="fill: rgb(255, 255, 255);"><tspan  dy="0">Сервис уведомлений</tspan></text><text  id="v-54" font-size="16.799999999999997px" xml:space="preserve" y="162.4" text-anchor="middle" font-family="Tahoma, Verdana, Helvetica, Arial" fill="#ffffff" dominant-baseline="hanging" transform="matrix(1,0,0,1,225,0)" style="display: block; fill: rgb(255, 255, 255);"><tspan  dy="0">[Software System]</tspan></text><text  id="v-55" font-size="24px" xml:space="preserve" display="none" y="120.80000000000001" text-anchor="middle" font-family="Tahoma, Verdana, Helvetica, Arial" fill="#ffffff" dominant-baseline="hanging" transform="matrix(1,0,0,1,225,0)" style="display: block; fill: rgb(255, 255, 255);"><tspan style="fill-opacity: 0; stroke-opacity: 0;"  dy="0">-</tspan></text><g  id="v-56" color="#ffffff" transform="matrix(1,0,0,1,222.5,268)" style="fill: rgb(255, 255, 255);" display="none"><g ></g><g ></g><g ></g><g ></g></g><image  id="v-57"></image></g></g><!--z-index:20--><g   id="j_8"  transform="translate(939,659)" style=""><g  id="v-58" style="opacity: 1;"><rect  id="v-59" rx="20" ry="20" stroke-width="2" pointer-events="visiblePainted" fill="#1168bd" stroke="#0f5eaa" stroke-dasharray="" width="450" height="300" style="fill: rgb(17, 104, 189); stroke: rgb(15, 94, 170);"></rect><text  id="v-60" font-size="33.599999999999994px" xml:space="preserve" y="120.80000000000001" font-weight="bold" text-anchor="middle" pointer-events="visible" font-family="Tahoma, Verdana, Helvetica, Arial" fill="#ffffff" dominant-baseline="hanging" transform="matrix(1,0,0,1,225,0)" style="fill: rgb(255, 255, 255);"><tspan  dy="0">MyPills</tspan></text><text  id="v-61" font-size="16.799999999999997px" xml:space="preserve" y="162.4" text-anchor="middle" font-family="Tahoma, Verdana, Helvetica, Arial" fill="#ffffff" dominant-baseline="hanging" transform="matrix(1,0,0,1,225,0)" style="display: block; fill: rgb(255, 255, 255);"><tspan  dy="0">[Software System]</tspan></text><text  id="v-62" font-size="24px" xml:space="preserve" display="none" y="120.80000000000001" text-anchor="middle" font-family="Tahoma, Verdana, Helvetica, Arial" fill="#ffffff" dominant-baseline="hanging" transform="matrix(1,0,0,1,225,0)" style="display: block; fill: rgb(255, 255, 255);"><tspan style="fill-opacity: 0; stroke-opacity: 0;"  dy="0">-</tspan></text><g  id="v-63" color="#ffffff" transform="matrix(1,0,0,1,210,268)" style="fill: rgb(255, 255, 255);" display="none"><g  transform="translate(5 0)"><svg xmlns="http://www.w3.org/2000/svg" width="20" height="20" fill="currentColor" viewBox="0 0 16 16"><path fill-rule="evenodd" d="M6.5 12a5.5 5.5 0 1 0 0-11 5.5 5.5 0 0 0 0 11zM13 6.5a6.5 6.5 0 1 1-13 0 6.5 6.5 0 0 1 13 0z"></path><path d="M10.344 11.742c.03.04.062.078.098.115l3.85 3.85a1 1 0 0 0 1.415-1.414l-3.85-3.85a1.007 1.007 0 0 0-.115-.1 6.538 6.538 0 0 1-1.398 1.4z"></path><path fill-rule="evenodd" d="M6.5 3a.5.5 0 0 1 .5.5V6h2.5a.5.5 0 0 1 0 1H7v2.5a.5.5 0 0 1-1 0V7H3.5a.5.5 0 0 1 0-1H6V3.5a.5.5 0 0 1 .5-.5z"></path></svg></g><g ></g><g ></g><g ></g></g><image  id="v-64"></image></g></g><!--z-index:21--><g   id="j_9"  style="opacity: 1;"><path fill="none" cursor="pointer" stroke="transparent" stroke-linecap="round" joint-selector="wrapper" id="v-76" stroke-width="10" stroke-linejoin="round" d="M 599 359 L 759 359 C 765.6666666666666 359 771.3333333333333 361.66666666666663 776 367 L 1032.33 659"></path><path fill="none" pointer-events="none" joint-selector="line" id="v-75" stroke="#444444" stroke-width="2" stroke-linejoin="round" stroke-dasharray="8 8" d="M 599 359 L 759 359 C 765.6666666666666 359 771.3333333333333 361.66666666666663 776 367 L 1032.33 659" marker-end="url(#v-21252848929)"></path><g id="v-68" ><g id="v-69"  label-idx="0" cursor="move" transform="matrix(1,0,0,1,768.3494873046875,361.0471496582031)" style="cursor: default;"><rect joint-selector="rect" id="v-72" fill="#ffffff" rx="3" ry="3" x="-88.58573913574219" y="-90.7836685180664" width="177.17149353027344" height="177.40757751464844" pointer-events="none"  style="display: block;"></rect><text joint-selector="text" id="v-71" font-size="24px" xml:space="preserve" fill="#444444" text-anchor="middle" pointer-events="none" font-family="Tahoma, Verdana, Helvetica, Arial" font-weight="normal"  style="display: block;"><tspan  dy="-2.7em">Использует для</tspan><tspan dy="1.2em" x="0" >управления</tspan><tspan dy="1.2em" x="0" >аптечкой и</tspan><tspan dy="1.2em" x="0" >подбора</tspan><tspan dy="1.2em" x="0" >лекарства по</tspan><tspan dy="1.2em" x="0" >симптому</tspan></text></g><g id="v-70"  label-idx="1" cursor="move" transform="matrix(1,0,0,1,758.3494873046875,445.0471496582031)" style="cursor: default;"><rect joint-selector="rect" id="v-74" fill="#ffffff" rx="3" ry="3" x="0" y="0" width="0" height="0"  display="none"></rect><text joint-selector="text" id="v-73" fill="#000000" font-size="14" text-anchor="middle" text-vertical-anchor="middle" pointer-events="none"></text></g></g></g><!--z-index:22--><g   id="j_10"  style="opacity: 1;"><path fill="none" cursor="pointer" stroke="transparent" stroke-linecap="round" joint-selector="wrapper" id="v-90" stroke-width="10" stroke-linejoin="round" d="M 599 809 L 939 809"></path><path fill="none" pointer-events="none" joint-selector="line" id="v-89" stroke="#444444" stroke-width="2" stroke-linejoin="round" stroke-dasharray="8 8" d="M 599 809 L 939 809" marker-end="url(#v-21252848929)"></path><g id="v-82" ><g id="v-83"  label-idx="0" cursor="move" transform="matrix(1,0,0,1,769,809)" style="cursor: default;"><rect joint-selector="rect" id="v-86" fill="#ffffff" rx="3" ry="3" x="-93.05863952636719" y="-47.58366394042969" width="186.4142303466797" height="91.007568359375" pointer-events="none"  style="display: block;"></rect><text joint-selector="text" id="v-85" font-size="24px" xml:space="preserve" fill="#444444" text-anchor="middle" pointer-events="none" font-family="Tahoma, Verdana, Helvetica, Arial" font-weight="normal"  style="display: block;"><tspan  dy="-0.8999999999999999em">Администрирует</tspan><tspan dy="1.2em" x="0" >справочник</tspan><tspan dy="1.2em" x="0" >лекарств</tspan></text></g><g id="v-84"  label-idx="1" cursor="move" transform="matrix(1,0,0,1,759,849.7999877929688)" style="cursor: default;"><rect joint-selector="rect" id="v-88" fill="#ffffff" rx="3" ry="3" x="0" y="2.842170943040401e-14" width="0" height="0"  display="none"></rect><text joint-selector="text" id="v-87" fill="#000000" font-size="14" text-anchor="middle" text-vertical-anchor="middle" pointer-events="none"></text></g></g></g><!--z-index:23--><g   id="j_11"  style="opacity: 1;"><path fill="none" cursor="pointer" stroke="transparent" stroke-linecap="round" joint-selector="wrapper" id="v-102" stroke-width="10" stroke-linejoin="round" d="M 599 1259 L 759 1259 C 765.6666666666666 1259 771.3333333333333 1256.3333333333333 776 1251 L 1032.33 959"></path><path fill="none" pointer-events="none" joint-selector="line" id="v-101" stroke="#444444" stroke-width="2" stroke-linejoin="round" stroke-dasharray="8 8" d="M 599 1259 L 759 1259 C 765.6666666666666 1259 771.3333333333333 1256.3333333333333 776 1251 L 1032.33 959" marker-end="url(#v-21252848929)"></path><g id="v-94" ><g id="v-95"  label-idx="0" cursor="move" transform="matrix(1,0,0,1,768.3494873046875,1256.952880859375)" style="cursor: default;"><rect joint-selector="rect" id="v-98" fill="#ffffff" rx="3" ry="3" x="-97.73570251464844" y="-33.18366622924805" width="195.99107360839844" height="62.20757293701172" pointer-events="none"  style="display: block;"></rect><text joint-selector="text" id="v-97" font-size="24px" xml:space="preserve" fill="#444444" text-anchor="middle" pointer-events="none" font-family="Tahoma, Verdana, Helvetica, Arial" font-weight="normal"  style="display: block;"><tspan  dy="-0.3em">Регистрируется в</tspan><tspan dy="1.2em" x="0" >системе</tspan></text></g><g id="v-96"  label-idx="1" cursor="move" transform="matrix(1,0,0,1,758.3494873046875,1283.3529052734375)" style="cursor: default;"><rect joint-selector="rect" id="v-100" fill="#ffffff" rx="3" ry="3" x="0" y="0" width="0" height="0"  display="none"></rect><text joint-selector="text" id="v-99" fill="#000000" font-size="14" text-anchor="middle" text-vertical-anchor="middle" pointer-events="none"></text></g></g></g><!--z-index:24--><g   id="j_12"  style="opacity: 1;"><path fill="none" cursor="pointer" stroke="transparent" stroke-linecap="round" joint-selector="wrapper" id="v-114" stroke-width="10" stroke-linejoin="round" d="M 1389 709.32 L 1550 638 C 1556 635.3333333333333 1562.3333333333333 634 1569 634 L 1729 634"></path><path fill="none" pointer-events="none" joint-selector="line" id="v-113" stroke="#444444" stroke-width="2" stroke-linejoin="round" stroke-dasharray="8 8" d="M 1389 709.32 L 1550 638 C 1556 635.3333333333333 1562.3333333333333 634 1569 634 L 1729 634" marker-end="url(#v-21252848929)"></path><g id="v-106" ><g id="v-107"  label-idx="0" cursor="move" transform="matrix(1,0,0,1,1559.212890625,635.0078125)" style="cursor: default;"><rect joint-selector="rect" id="v-110" fill="#ffffff" rx="3" ry="3" x="-93.91239166259766" y="-61.983665466308594" width="188.12173461914062" height="119.80757141113281" pointer-events="none"  style="display: block;"></rect><text joint-selector="text" id="v-109" font-size="24px" xml:space="preserve" fill="#444444" text-anchor="middle" pointer-events="none" font-family="Tahoma, Verdana, Helvetica, Arial" font-weight="normal"  style="display: block;"><tspan  dy="-1.4999999999999998em">Перенаправляет</tspan><tspan dy="1.2em" x="0" >для заказа</tspan><tspan dy="1.2em" x="0" >необходимых</tspan><tspan dy="1.2em" x="0" >лекарств</tspan></text></g><g id="v-108"  label-idx="1" cursor="move" transform="matrix(1,0,0,1,1549.212890625,690.2078247070312)" style="cursor: default;"><rect joint-selector="rect" id="v-112" fill="#ffffff" rx="3" ry="3" x="0" y="1.1368683772161603e-13" width="0" height="0"  display="none"></rect><text joint-selector="text" id="v-111" fill="#000000" font-size="14" text-anchor="middle" text-vertical-anchor="middle" pointer-events="none"></text></g></g></g><!--z-index:25--><g   id="j_13"  style="opacity: 1;"><path fill="none" cursor="pointer" stroke="transparent" stroke-linecap="round" joint-selector="wrapper" id="v-126" stroke-width="10" stroke-linejoin="round" d="M 1389 908.68 L 1550 980 C 1556 982.6666666666666 1562.3333333333333 984 1569 984 L 1729 984"></path><path fill="none" pointer-events="none" joint-selector="line" id="v-125" stroke="#444444" stroke-width="2" stroke-linejoin="round" stroke-dasharray="8 8" d="M 1389 908.68 L 1550 980 C 1556 982.6666666666666 1562.3333333333333 984 1569 984 L 1729 984" marker-end="url(#v-21252848929)"></path><g id="v-118" ><g id="v-119"  label-idx="0" cursor="move" transform="matrix(1,0,0,1,1559.212890625,982.9921875)" style="cursor: default;"><rect joint-selector="rect" id="v-122" fill="#ffffff" rx="3" ry="3" x="-92.5204086303711" y="-61.983665466308594" width="185.0408172607422" height="119.80757141113281" pointer-events="none"  style="display: block;"></rect><text joint-selector="text" id="v-121" font-size="24px" xml:space="preserve" fill="#444444" text-anchor="middle" pointer-events="none" font-family="Tahoma, Verdana, Helvetica, Arial" font-weight="normal"  style="display: block;"><tspan  dy="-1.4999999999999998em">Отправляет</tspan><tspan dy="1.2em" x="0" >уведомления об</tspan><tspan dy="1.2em" x="0" >истечении срока</tspan><tspan dy="1.2em" x="0" >годности</tspan></text></g><g id="v-120"  label-idx="1" cursor="move" transform="matrix(1,0,0,1,1549.212890625,1038.192138671875)" style="cursor: default;"><rect joint-selector="rect" id="v-124" fill="#ffffff" rx="3" ry="3" x="0" y="0" width="0" height="0"  display="none"></rect><text joint-selector="text" id="v-123" fill="#000000" font-size="14" text-anchor="middle" text-vertical-anchor="middle" pointer-events="none"></text></g></g></g><!--z-index:26--></g><g  style="user-select: none;"></g><g ></g><g  display="none"></g></g></svg>