<svg xmlns="http://www.w3.org/2000/svg" xmlns:xlink="http://www.w3.org/1999/xlink" version="1.1" width="3270" height="2481" style="width: 3270px; height: 2481px; background: #ffffff" viewBox="0 0 3270 2481"><style id="v-3" type="text/css">        .joint-element .scalable * {            vector-effect: non-scaling-stroke;        }    </style><defs joint-selector="defs"><marker id="v-21252848929" orient="auto" overflow="visible" markerUnits="userSpaceOnUse"><path id="v-78" stroke="#444444" fill="#444444" transform="rotate(180)" d="M 20 -10 0 0 20 10 Z"></path></marker></defs><g  joint-selector="layers" transform="matrix(1,0,0,1,0,0)"><g style="pointer-events: none;" ></g><g ></g><g  style="user-select: none;"><!--z-index:1--><!--z-index:2--><!--z-index:3--><!--z-index:4--><!--z-index:5--><!--z-index:6--><!--z-index:7--><!--z-index:8--><!--z-index:9--><!--z-index:10--><!--z-index:11--><!--z-index:12--><!--z-index:13--><!--z-index:14--><!--z-index:15--><!--z-index:16--><!--z-index:17--><!--z-index:18--><!--z-index:19--><!--z-index:20--><g   id="j_15"  transform="translate(20,2437)"><g id="v-132"><text  id="v-133" font-size="24px" xml:space="preserve" y="0.8em" font-weight="normal" text-anchor="start" fill="#444444" pointer-events="none" display="block" font-family="Tahoma, Verdana, Helvetica, Arial"><tspan  dy="0">четверг, 14 мая 2026 г. в 16:25 Москва, стандартное время</tspan></text></g></g><!--z-index:21--><g   id="j_14"  transform="translate(20,2391)"><g id="v-130"><text  id="v-131" font-size="36px" xml:space="preserve" y="0.8em" font-weight="normal" text-anchor="start" fill="#444444" pointer-events="none" display="block" font-family="Tahoma, Verdana, Helvetica, Arial"><tspan  dy="0">Container View: MyPills</tspan></text></g></g><!--z-index:22--><g   id="j_16"  transform="translate(200,857)" style=""><g  id="v-134" style="opacity: 1;"><rect  x="0" y="160" width="400" height="240" rx="70" id="v-136" stroke-width="2" pointer-events="visiblePainted" fill="#08427b" stroke="#073b6f" stroke-dasharray="" style="fill: rgb(8, 66, 123); stroke: rgb(7, 59, 111);"></rect><circle  cx="200" cy="88.88888888888889" r="88.88888888888889" id="v-135" stroke-width="2" pointer-events="visiblePainted" fill="#08427b" stroke="#073b6f" stroke-dasharray="" style="fill: rgb(8, 66, 123); stroke: rgb(7, 59, 111);"></circle><line  x1="80" y1="266.6666666666667" x2="80" y2="400" id="v-142" stroke="#073b6f" stroke-width="1" stroke-dasharray="" style="stroke: rgb(7, 59, 111);"></line><line  x1="320" y1="266.6666666666667" x2="320" y2="400" id="v-143" stroke="#073b6f" stroke-width="1" stroke-dasharray="" style="stroke: rgb(7, 59, 111);"></line><text  id="v-137" font-size="33.599999999999994px" xml:space="preserve" y="250.8" font-weight="bold" text-anchor="middle" pointer-events="visible" font-family="Tahoma, Verdana, Helvetica, Arial" fill="#ffffff" dominant-baseline="hanging" transform="matrix(1,0,0,1,200,0)" style="fill: rgb(255, 255, 255);"><tspan  dy="0">Пользователь</tspan></text><text  id="v-138" font-size="16.799999999999997px" xml:space="preserve" y="292.4" text-anchor="middle" font-family="Tahoma, Verdana, Helvetica, Arial" fill="#ffffff" dominant-baseline="hanging" transform="matrix(1,0,0,1,200,0)" style="display: block; fill: rgb(255, 255, 255);"><tspan  dy="0">[Person]</tspan></text><text  id="v-139" font-size="24px" xml:space="preserve" display="none" y="250.8" text-anchor="middle" font-family="Tahoma, Verdana, Helvetica, Arial" fill="#ffffff" dominant-baseline="hanging" transform="matrix(1,0,0,1,200,0)" style="display: block; fill: rgb(255, 255, 255);"><tspan style="fill-opacity: 0; stroke-opacity: 0;"  dy="0">-</tspan></text><g  id="v-140" font-weight="normal" text-anchor="middle" color="#ffffff" transform="matrix(1,0,0,1,197.5,368)" style="fill: rgb(255, 255, 255);" display="none"><g ></g><g ></g><g ></g><g ></g></g><image  id="v-141"></image></g></g><!--z-index:23--><g   id="j_17"  transform="translate(200,1307)" style=""><g  id="v-144" style="opacity: 1;"><rect  x="0" y="160" width="400" height="240" rx="70" id="v-146" stroke-width="2" pointer-events="visiblePainted" fill="#08427b" stroke="#073b6f" stroke-dasharray="" style="fill: rgb(8, 66, 123); stroke: rgb(7, 59, 111);"></rect><circle  cx="200" cy="88.88888888888889" r="88.88888888888889" id="v-145" stroke-width="2" pointer-events="visiblePainted" fill="#08427b" stroke="#073b6f" stroke-dasharray="" style="fill: rgb(8, 66, 123); stroke: rgb(7, 59, 111);"></circle><line  x1="80" y1="266.6666666666667" x2="80" y2="400" id="v-152" stroke="#073b6f" stroke-width="1" stroke-dasharray="" style="stroke: rgb(7, 59, 111);"></line><line  x1="320" y1="266.6666666666667" x2="320" y2="400" id="v-153" stroke="#073b6f" stroke-width="1" stroke-dasharray="" style="stroke: rgb(7, 59, 111);"></line><text  id="v-147" font-size="33.599999999999994px" xml:space="preserve" y="250.8" font-weight="bold" text-anchor="middle" pointer-events="visible" font-family="Tahoma, Verdana, Helvetica, Arial" fill="#ffffff" dominant-baseline="hanging" transform="matrix(1,0,0,1,200,0)" style="fill: rgb(255, 255, 255);"><tspan  dy="0">Администратор</tspan></text><text  id="v-148" font-size="16.799999999999997px" xml:space="preserve" y="292.4" text-anchor="middle" font-family="Tahoma, Verdana, Helvetica, Arial" fill="#ffffff" dominant-baseline="hanging" transform="matrix(1,0,0,1,200,0)" style="display: block; fill: rgb(255, 255, 255);"><tspan  dy="0">[Person]</tspan></text><text  id="v-149" font-size="24px" xml:space="preserve" display="none" y="250.8" text-anchor="middle" font-family="Tahoma, Verdana, Helvetica, Arial" fill="#ffffff" dominant-baseline="hanging" transform="matrix(1,0,0,1,200,0)" style="display: block; fill: rgb(255, 255, 255);"><tspan style="fill-opacity: 0; stroke-opacity: 0;"  dy="0">-</tspan></text><g  id="v-150" font-weight="normal" text-anchor="middle" color="#ffffff" transform="matrix(1,0,0,1,197.5,368)" style="fill: rgb(255, 255, 255);" display="none"><g ></g><g ></g><g ></g><g ></g></g><image  id="v-151"></image></g></g><!--z-index:24--><g   id="j_18"  transform="translate(200,1840)" style=""><g  id="v-154" style="opacity: 1;"><rect  x="0" y="160" width="400" height="240" rx="70" id="v-156" stroke-width="2" pointer-events="visiblePainted" fill="#08427b" stroke="#073b6f" stroke-dasharray="" style="fill: rgb(8, 66, 123); stroke: rgb(7, 59, 111);"></rect><circle  cx="200" cy="88.88888888888889" r="88.88888888888889" id="v-155" stroke-width="2" pointer-events="visiblePainted" fill="#08427b" stroke="#073b6f" stroke-dasharray="" style="fill: rgb(8, 66, 123); stroke: rgb(7, 59, 111);"></circle><line  x1="80" y1="266.6666666666667" x2="80" y2="400" id="v-162" stroke="#073b6f" stroke-width="1" stroke-dasharray="" style="stroke: rgb(7, 59, 111);"></line><line  x1="320" y1="266.6666666666667" x2="320" y2="400" id="v-163" stroke="#073b6f" stroke-width="1" stroke-dasharray="" style="stroke: rgb(7, 59, 111);"></line><text  id="v-157" font-size="33.599999999999994px" xml:space="preserve" y="250.8" font-weight="bold" text-anchor="middle" pointer-events="visible" font-family="Tahoma, Verdana, Helvetica, Arial" fill="#ffffff" dominant-baseline="hanging" transform="matrix(1,0,0,1,200,0)" style="fill: rgb(255, 255, 255);"><tspan  dy="0">Гость</tspan></text><text  id="v-158" font-size="16.799999999999997px" xml:space="preserve" y="292.4" text-anchor="middle" font-family="Tahoma, Verdana, Helvetica, Arial" fill="#ffffff" dominant-baseline="hanging" transform="matrix(1,0,0,1,200,0)" style="display: block; fill: rgb(255, 255, 255);"><tspan  dy="0">[Person]</tspan></text><text  id="v-159" font-size="24px" xml:space="preserve" display="none" y="250.8" text-anchor="middle" font-family="Tahoma, Verdana, Helvetica, Arial" fill="#ffffff" dominant-baseline="hanging" transform="matrix(1,0,0,1,200,0)" style="display: block; fill: rgb(255, 255, 255);"><tspan style="fill-opacity: 0; stroke-opacity: 0;"  dy="0">-</tspan></text><g  id="v-160" font-weight="normal" text-anchor="middle" color="#ffffff" transform="matrix(1,0,0,1,197.5,368)" style="fill: rgb(255, 255, 255);" display="none"><g ></g><g ></g><g ></g><g ></g></g><image  id="v-161"></image></g></g><!--z-index:25--><g   id="j_19"  transform="translate(2570,159)" style=""><g  id="v-167" style="opacity: 1;"><rect  id="v-168" rx="20" ry="20" stroke-width="5" pointer-events="visiblePainted" fill="#5895d1" stroke="#b8b8b8" stroke-dasharray="" width="450" height="300" style="fill: rgb(88, 149, 209); stroke: rgb(184, 184, 184);"></rect><text  id="v-169" font-size="33.599999999999994px" xml:space="preserve" y="120.80000000000001" font-weight="bold" text-anchor="middle" pointer-events="visible" font-family="Tahoma, Verdana, Helvetica, Arial" fill="#ffffff" dominant-baseline="hanging" transform="matrix(1,0,0,1,225,0)" style="fill: rgb(255, 255, 255);"><tspan  dy="0">Сервис онлайн-аптеки</tspan></text><text  id="v-170" font-size="16.799999999999997px" xml:space="preserve" y="162.4" text-anchor="middle" font-family="Tahoma, Verdana, Helvetica, Arial" fill="#ffffff" dominant-baseline="hanging" transform="matrix(1,0,0,1,225,0)" style="display: block; fill: rgb(255, 255, 255);"><tspan  dy="0">[Software System]</tspan></text><text  id="v-171" font-size="24px" xml:space="preserve" display="none" y="120.80000000000001" text-anchor="middle" font-family="Tahoma, Verdana, Helvetica, Arial" fill="#ffffff" dominant-baseline="hanging" transform="matrix(1,0,0,1,225,0)" style="display: block; fill: rgb(255, 255, 255);"><tspan style="fill-opacity: 0; stroke-opacity: 0;"  dy="0">-</tspan></text><g  id="v-172" color="#ffffff" transform="matrix(1,0,0,1,222.5,268)" style="fill: rgb(255, 255, 255);" display="none"><g ></g><g ></g><g ></g><g ></g></g><image  id="v-173"></image></g></g><!--z-index:26--><g   id="j_20"  transform="translate(2570,509)" style=""><g  id="v-177" style="opacity: 1;"><rect  id="v-178" rx="20" ry="20" stroke-width="5" pointer-events="visiblePainted" fill="#5895d1" stroke="#b8b8b8" stroke-dasharray="" width="450" height="300" style="fill: rgb(88, 149, 209); stroke: rgb(184, 184, 184);"></rect><text  id="v-179" font-size="33.599999999999994px" xml:space="preserve" y="120.80000000000001" font-weight="bold" text-anchor="middle" pointer-events="visible" font-family="Tahoma, Verdana, Helvetica, Arial" fill="#ffffff" dominant-baseline="hanging" transform="matrix(1,0,0,1,225,0)" style="fill: rgb(255, 255, 255);"><tspan  dy="0">Сервис уведомлений</tspan></text><text  id="v-180" font-size="16.799999999999997px" xml:space="preserve" y="162.4" text-anchor="middle" font-family="Tahoma, Verdana, Helvetica, Arial" fill="#ffffff" dominant-baseline="hanging" transform="matrix(1,0,0,1,225,0)" style="display: block; fill: rgb(255, 255, 255);"><tspan  dy="0">[Software System]</tspan></text><text  id="v-181" font-size="24px" xml:space="preserve" display="none" y="120.80000000000001" text-anchor="middle" font-family="Tahoma, Verdana, Helvetica, Arial" fill="#ffffff" dominant-baseline="hanging" transform="matrix(1,0,0,1,225,0)" style="display: block; fill: rgb(255, 255, 255);"><tspan style="fill-opacity: 0; stroke-opacity: 0;"  dy="0">-</tspan></text><g  id="v-182" color="#ffffff" transform="matrix(1,0,0,1,222.5,268)" style="fill: rgb(255, 255, 255);" display="none"><g ></g><g ></g><g ></g><g ></g></g><image  id="v-183"></image></g></g><!--z-index:27--><g   id="j_22"  transform="translate(940,1282)" style="; opacity: 1;"><g id="v-194"><rect  id="v-195" width="2130" height="887" rx="20" ry="20" stroke-width="2" pointer-events="none" stroke="#0f5eaa" fill="#ffffff" opacity="1" stroke-dasharray=""></rect><text  id="v-196" font-size="33.599999999999994px" xml:space="preserve" y="848" font-weight="bold" text-anchor="start" pointer-events="visible" font-family="Tahoma, Verdana, Helvetica, Arial" fill="#1168bd" transform="matrix(1,0,0,1,15,0)"><tspan  dy="0">MyPills</tspan></text><text  id="v-197" font-size="16.799999999999997px" xml:space="preserve" y="872" font-weight="normal" text-anchor="start" pointer-events="visible" font-family="Tahoma, Verdana, Helvetica, Arial" fill="#1168bd" transform="matrix(1,0,0,1,15,0)"><tspan  dy="0">[Software System]</tspan></text><image  id="v-198" pointer-events="visible"></image></g></g><!--z-index:28--><g   id="j_21"  transform="translate(990,1332)" style=""><g  id="v-187" style="opacity: 1;"><rect  id="v-188" rx="20" ry="20" stroke-width="2" pointer-events="visiblePainted" fill="#438dd5" stroke="#3c7fc0" stroke-dasharray="" width="450" height="300" style="fill: rgb(67, 141, 213); stroke: rgb(60, 127, 192);"></rect><text  id="v-189" font-size="33.599999999999994px" xml:space="preserve" y="100.64000000000001" font-weight="bold" text-anchor="middle" pointer-events="visible" font-family="Tahoma, Verdana, Helvetica, Arial" fill="#ffffff" dominant-baseline="hanging" transform="matrix(1,0,0,1,225,0)" style="fill: rgb(255, 255, 255);"><tspan  dy="0">Пользовательский</tspan><tspan dy="1.2em" x="0" >интерфейс</tspan></text><text  id="v-190" font-size="16.799999999999997px" xml:space="preserve" y="182.56" text-anchor="middle" font-family="Tahoma, Verdana, Helvetica, Arial" fill="#ffffff" dominant-baseline="hanging" transform="matrix(1,0,0,1,225,0)" style="display: block; fill: rgb(255, 255, 255);"><tspan  dy="0">[Container]</tspan></text><text  id="v-191" font-size="24px" xml:space="preserve" display="none" y="100.64000000000001" text-anchor="middle" font-family="Tahoma, Verdana, Helvetica, Arial" fill="#ffffff" dominant-baseline="hanging" transform="matrix(1,0,0,1,225,0)" style="display: block; fill: rgb(255, 255, 255);"><tspan style="fill-opacity: 0; stroke-opacity: 0;"  dy="0">-</tspan></text><g  id="v-192" color="#ffffff" transform="matrix(1,0,0,1,222.5,268)" style="fill: rgb(255, 255, 255);" display="none"><g ></g><g ></g><g ></g><g ></g></g><image  id="v-193"></image></g></g><!--z-index:29--><g   id="j_23"  transform="translate(1780,1332)" style=""><g  id="v-199" style="opacity: 1;"><rect  id="v-200" rx="20" ry="20" stroke-width="2" pointer-events="visiblePainted" fill="#438dd5" stroke="#3c7fc0" stroke-dasharray="" width="450" height="300" style="fill: rgb(67, 141, 213); stroke: rgb(60, 127, 192);"></rect><text  id="v-201" font-size="33.599999999999994px" xml:space="preserve" y="120.80000000000001" font-weight="bold" text-anchor="middle" pointer-events="visible" font-family="Tahoma, Verdana, Helvetica, Arial" fill="#ffffff" dominant-baseline="hanging" transform="matrix(1,0,0,1,225,0)" style="fill: rgb(255, 255, 255);"><tspan  dy="0">Бэкенд</tspan></text><text  id="v-202" font-size="16.799999999999997px" xml:space="preserve" y="162.4" text-anchor="middle" font-family="Tahoma, Verdana, Helvetica, Arial" fill="#ffffff" dominant-baseline="hanging" transform="matrix(1,0,0,1,225,0)" style="display: block; fill: rgb(255, 255, 255);"><tspan  dy="0">[Container]</tspan></text><text  id="v-203" font-size="24px" xml:space="preserve" display="none" y="120.80000000000001" text-anchor="middle" font-family="Tahoma, Verdana, Helvetica, Arial" fill="#ffffff" dominant-baseline="hanging" transform="matrix(1,0,0,1,225,0)" style="display: block; fill: rgb(255, 255, 255);"><tspan style="fill-opacity: 0; stroke-opacity: 0;"  dy="0">-</tspan></text><g  id="v-204" color="#ffffff" transform="matrix(1,0,0,1,210,268)" style="fill: rgb(255, 255, 255);" display="none"><g  transform="translate(5 0)"><svg xmlns="http://www.w3.org/2000/svg" width="20" height="20" fill="currentColor" viewBox="0 0 16 16"><path fill-rule="evenodd" d="M6.5 12a5.5 5.5 0 1 0 0-11 5.5 5.5 0 0 0 0 11zM13 6.5a6.5 6.5 0 1 1-13 0 6.5 6.5 0 0 1 13 0z"></path><path d="M10.344 11.742c.03.04.062.078.098.115l3.85 3.85a1 1 0 0 0 1.415-1.414l-3.85-3.85a1.007 1.007 0 0 0-.115-.1 6.538 6.538 0 0 1-1.398 1.4z"></path><path fill-rule="evenodd" d="M6.5 3a.5.5 0 0 1 .5.5V6h2.5a.5.5 0 0 1 0 1H7v2.5a.5.5 0 0 1-1 0V7H3.5a.5.5 0 0 1 0-1H6V3.5a.5.5 0 0 1 .5-.5z"></path></svg></g><g ></g><g ></g><g ></g></g><image  id="v-205"></image></g></g><!--z-index:30--><g   id="j_24"  transform="translate(2570,1390)" style=""><g  id="v-206" style="opacity: 1;"><path  d="M 0,30 a 225,30 0,0,0 450 0 a 225,30 0,0,0 -450 0 l 0,240 a 225,30 0,0,0 450 0 l 0,-240" id="v-207" stroke-width="2" pointer-events="visiblePainted" fill="#438dd5" stroke="#3c7fc0" stroke-dasharray="" style="fill: rgb(67, 141, 213); stroke: rgb(60, 127, 192);"></path><rect  id="v-208" stroke-width="0" pointer-events="visiblePainted" fill="none" stroke="none" width="450" height="270" x="0" y="30"></rect><text  id="v-209" font-size="33.599999999999994px" xml:space="preserve" y="135.8" font-weight="bold" text-anchor="middle" pointer-events="visible" font-family="Tahoma, Verdana, Helvetica, Arial" fill="#ffffff" dominant-baseline="hanging" transform="matrix(1,0,0,1,225,0)" style="fill: rgb(255, 255, 255);"><tspan  dy="0">База данных</tspan></text><text  id="v-210" font-size="16.799999999999997px" xml:space="preserve" y="177.4" text-anchor="middle" font-family="Tahoma, Verdana, Helvetica, Arial" fill="#ffffff" dominant-baseline="hanging" transform="matrix(1,0,0,1,225,0)" style="display: block; fill: rgb(255, 255, 255);"><tspan  dy="0">[Container]</tspan></text><text  id="v-211" font-size="24px" xml:space="preserve" display="none" y="135.8" text-anchor="middle" font-family="Tahoma, Verdana, Helvetica, Arial" fill="#ffffff" dominant-baseline="hanging" transform="matrix(1,0,0,1,225,0)" style="display: block; fill: rgb(255, 255, 255);"><tspan style="fill-opacity: 0; stroke-opacity: 0;"  dy="0">-</tspan></text><g  id="v-212" font-weight="normal" text-anchor="middle" color="#ffffff" transform="matrix(1,0,0,1,222.5,268)" style="fill: rgb(255, 255, 255);" display="none"><g ></g><g ></g><g ></g><g ></g></g><image  id="v-213"></image></g></g><!--z-index:31--><g   id="j_25"  transform="translate(2570,1740)" style=""><g  id="v-214" style="opacity: 1;"><path  d="M 0,30 a 225,30 0,0,0 450 0 a 225,30 0,0,0 -450 0 l 0,240 a 225,30 0,0,0 450 0 l 0,-240" id="v-215" stroke-width="2" pointer-events="visiblePainted" fill="#438dd5" stroke="#3c7fc0" stroke-dasharray="" style="fill: rgb(67, 141, 213); stroke: rgb(60, 127, 192);"></path><rect  id="v-216" stroke-width="0" pointer-events="visiblePainted" fill="none" stroke="none" width="450" height="270" x="0" y="30"></rect><text  id="v-217" font-size="33.599999999999994px" xml:space="preserve" y="135.8" font-weight="bold" text-anchor="middle" pointer-events="visible" font-family="Tahoma, Verdana, Helvetica, Arial" fill="#ffffff" dominant-baseline="hanging" transform="matrix(1,0,0,1,225,0)" style="fill: rgb(255, 255, 255);"><tspan  dy="0">Кэш</tspan></text><text  id="v-218" font-size="16.799999999999997px" xml:space="preserve" y="177.4" text-anchor="middle" font-family="Tahoma, Verdana, Helvetica, Arial" fill="#ffffff" dominant-baseline="hanging" transform="matrix(1,0,0,1,225,0)" style="display: block; fill: rgb(255, 255, 255);"><tspan  dy="0">[Container]</tspan></text><text  id="v-219" font-size="24px" xml:space="preserve" display="none" y="135.8" text-anchor="middle" font-family="Tahoma, Verdana, Helvetica, Arial" fill="#ffffff" dominant-baseline="hanging" transform="matrix(1,0,0,1,225,0)" style="display: block; fill: rgb(255, 255, 255);"><tspan style="fill-opacity: 0; stroke-opacity: 0;"  dy="0">-</tspan></text><g  id="v-220" font-weight="normal" text-anchor="middle" color="#ffffff" transform="matrix(1,0,0,1,222.5,268)" style="fill: rgb(255, 255, 255);" display="none"><g ></g><g ></g><g ></g><g ></g></g><image  id="v-221"></image></g></g><!--z-index:32--><g   id="j_26"  style="opacity: 1;"><path fill="none" cursor="pointer" stroke="transparent" stroke-linecap="round" joint-selector="wrapper" id="v-233" stroke-width="10" stroke-linejoin="round" d="M 600 1057.22 L 930 1058 C 936.6666666666666 1057.7333333333331 941.6666666666666 1060.3999999999999 945 1066 L 1117.8 1332"></path><path fill="none" pointer-events="none" joint-selector="line" id="v-232" stroke="#444444" stroke-width="2" stroke-linejoin="round" stroke-dasharray="8 8" d="M 600 1057.22 L 930 1058 C 936.6666666666666 1057.7333333333331 941.6666666666666 1060.3999999999999 945 1066 L 1117.8 1332" marker-end="url(#v-21252848929)"></path><g id="v-225" ><g id="v-226"  label-idx="0" cursor="move" transform="matrix(1,0,0,1,769.3896484375,1057.620361328125)" style="cursor: default;"><rect joint-selector="rect" id="v-229" fill="#ffffff" rx="3" ry="3" x="-98.01409912109375" y="-61.983665466308594" width="196.0281982421875" height="119.80757141113281" pointer-events="none"  style="display: block;"></rect><text joint-selector="text" id="v-228" font-size="24px" xml:space="preserve" fill="#444444" text-anchor="middle" pointer-events="none" font-family="Tahoma, Verdana, Helvetica, Arial" font-weight="normal"  style="display: block;"><tspan  dy="-1.4999999999999998em">Смотрит наличие</tspan><tspan dy="1.2em" x="0" >лекарств и ищет</tspan><tspan dy="1.2em" x="0" >подходящие по</tspan><tspan dy="1.2em" x="0" >симптому</tspan></text></g><g id="v-227"  label-idx="1" cursor="move" transform="matrix(1,0,0,1,759.3896484375,1112.8204345703125)" style="cursor: default;"><rect joint-selector="rect" id="v-231" fill="#ffffff" rx="3" ry="3" x="1.1368683772161603e-13" y="1.1368683772161603e-13" width="0" height="0"  display="none"></rect><text joint-selector="text" id="v-230" fill="#000000" font-size="14" text-anchor="middle" text-vertical-anchor="middle" pointer-events="none"></text></g></g></g><!--z-index:33--><g   id="j_27"  style="opacity: 1;"><path fill="none" cursor="pointer" stroke="transparent" stroke-linecap="round" joint-selector="wrapper" id="v-245" stroke-width="10" stroke-linejoin="round" d="M 600 1507.22 L 930 1508 C 936.6666666666666 1507.7333333333331 943.3333333333333 1507.3999999999999 950 1507 L 990 1502.95"></path><path fill="none" pointer-events="none" joint-selector="line" id="v-244" stroke="#444444" stroke-width="2" stroke-linejoin="round" stroke-dasharray="8 8" d="M 600 1507.22 L 930 1508 C 936.6666666666666 1507.7333333333331 943.3333333333333 1507.3999999999999 950 1507 L 990 1502.95" marker-end="url(#v-21252848929)"></path><g id="v-237" ><g id="v-238"  label-idx="0" cursor="move" transform="matrix(1,0,0,1,770.0101928710938,1507.621826171875)" style="cursor: default;"><rect joint-selector="rect" id="v-241" fill="#ffffff" rx="3" ry="3" x="-90.77578735351562" y="-61.983665466308594" width="181.5515899658203" height="119.80757141113281" pointer-events="none"  style="display: block;"></rect><text joint-selector="text" id="v-240" font-size="24px" xml:space="preserve" fill="#444444" text-anchor="middle" pointer-events="none" font-family="Tahoma, Verdana, Helvetica, Arial" font-weight="normal"  style="display: block;"><tspan  dy="-1.4999999999999998em">Видит панель</tspan><tspan dy="1.2em" x="0" >управления для</tspan><tspan dy="1.2em" x="0" >редактирования</tspan><tspan dy="1.2em" x="0" >справочника</tspan></text></g><g id="v-239"  label-idx="1" cursor="move" transform="matrix(1,0,0,1,760.0101928710938,1562.8218994140625)" style="cursor: default;"><rect joint-selector="rect" id="v-243" fill="#ffffff" rx="3" ry="3" x="0" y="2.2737367544323206e-13" width="0" height="0"  display="none"></rect><text joint-selector="text" id="v-242" fill="#000000" font-size="14" text-anchor="middle" text-vertical-anchor="middle" pointer-events="none"></text></g></g></g><!--z-index:34--><g   id="j_28"  style="opacity: 1;"><path fill="none" cursor="pointer" stroke="transparent" stroke-linecap="round" joint-selector="wrapper" id="v-257" stroke-width="10" stroke-linejoin="round" d="M 600 2040.15 L 930 2040 C 936.6666666666666 2040.2666666666667 941.3333333333333 2037.2666666666667 944 2031 L 1141.13 1632"></path><path fill="none" pointer-events="none" joint-selector="line" id="v-256" stroke="#444444" stroke-width="2" stroke-linejoin="round" stroke-dasharray="8 8" d="M 600 2040.15 L 930 2040 C 936.6666666666666 2040.2666666666667 941.3333333333333 2037.2666666666667 944 2031 L 1141.13 1632" marker-end="url(#v-21252848929)"></path><g id="v-249" ><g id="v-250"  label-idx="0" cursor="move" transform="matrix(1,0,0,1,769.62646484375,2040.0728759765625)" style="cursor: default;"><rect joint-selector="rect" id="v-253" fill="#ffffff" rx="3" ry="3" x="-98.66368865966797" y="-47.58366394042969" width="197.32737731933594" height="91.007568359375" pointer-events="none"  style="display: block;"></rect><text joint-selector="text" id="v-252" font-size="24px" xml:space="preserve" fill="#444444" text-anchor="middle" pointer-events="none" font-family="Tahoma, Verdana, Helvetica, Arial" font-weight="normal"  style="display: block;"><tspan  dy="-0.8999999999999999em">Видит окно для</tspan><tspan dy="1.2em" x="0" >решистрации или</tspan><tspan dy="1.2em" x="0" >входа</tspan></text></g><g id="v-251"  label-idx="1" cursor="move" transform="matrix(1,0,0,1,759.62646484375,2080.872802734375)" style="cursor: default;"><rect joint-selector="rect" id="v-255" fill="#ffffff" rx="3" ry="3" x="0" y="2.2737367544323206e-13" width="0" height="0"  display="none"></rect><text joint-selector="text" id="v-254" fill="#000000" font-size="14" text-anchor="middle" text-vertical-anchor="middle" pointer-events="none"></text></g></g></g><!--z-index:35--><g   id="j_29"  style="opacity: 1;"><path fill="none" cursor="pointer" stroke="transparent" stroke-linecap="round" joint-selector="wrapper" id="v-269" stroke-width="10" stroke-linejoin="round" d="M 1440 1482 L 1780 1482"></path><path fill="none" pointer-events="none" joint-selector="line" id="v-268" stroke="#444444" stroke-width="2" stroke-linejoin="round" stroke-dasharray="8 8" d="M 1440 1482 L 1780 1482" marker-end="url(#v-21252848929)"></path><g id="v-261" ><g id="v-262"  label-idx="0" cursor="move" transform="matrix(1,0,0,1,1610,1482)" style="cursor: default;"><rect joint-selector="rect" id="v-265" fill="#ffffff" rx="3" ry="3" x="-99.27616119384766" y="-18.78366470336914" width="203.52633666992188" height="33.407569885253906" pointer-events="none"  style="display: block;"></rect><text joint-selector="text" id="v-264" font-size="24px" xml:space="preserve" fill="#444444" text-anchor="middle" pointer-events="none" font-family="Tahoma, Verdana, Helvetica, Arial" font-weight="normal"  style="display: block;"><tspan  dy="0.3em">Делает запросы к</tspan></text></g><g id="v-263"  label-idx="1" cursor="move" transform="matrix(1,0,0,1,1600,1494)" style="cursor: default;"><rect joint-selector="rect" id="v-267" fill="#ffffff" rx="3" ry="3" x="5.551115123125783e-17" y="0" width="0" height="0"  display="none"></rect><text joint-selector="text" id="v-266" fill="#000000" font-size="14" text-anchor="middle" text-vertical-anchor="middle" pointer-events="none"></text></g></g></g><!--z-index:36--><g   id="j_30"  style="opacity: 1;"><path fill="none" cursor="pointer" stroke="transparent" stroke-linecap="round" joint-selector="wrapper" id="v-281" stroke-width="10" stroke-linejoin="round" d="M 2230 1515.27 L 2390 1539 C 2396.6666666666665 1539.9333333333334 2403.333333333333 1540.2666666666667 2410 1540 L 2570 1540.23"></path><path fill="none" pointer-events="none" joint-selector="line" id="v-280" stroke="#444444" stroke-width="2" stroke-linejoin="round" stroke-dasharray="8 8" d="M 2230 1515.27 L 2390 1539 C 2396.6666666666665 1539.9333333333334 2403.333333333333 1540.2666666666667 2410 1540 L 2570 1540.23" marker-end="url(#v-21252848929)"></path><g id="v-273" ><g id="v-274"  label-idx="0" cursor="move" transform="matrix(1,0,0,1,2400,1539.949951171875)" style="cursor: default;"><rect joint-selector="rect" id="v-277" fill="#ffffff" rx="3" ry="3" x="-64.68077087402344" y="-33.18366622924805" width="129.3615264892578" height="62.20757293701172" pointer-events="none"  style="display: block;"></rect><text joint-selector="text" id="v-276" font-size="24px" xml:space="preserve" fill="#444444" text-anchor="middle" pointer-events="none" font-family="Tahoma, Verdana, Helvetica, Arial" font-weight="normal"  style="display: block;"><tspan  dy="-0.3em">Читает из и</tspan><tspan dy="1.2em" x="0" >пишет в</tspan></text></g><g id="v-275"  label-idx="1" cursor="move" transform="matrix(1,0,0,1,2390,1566.3499755859375)" style="cursor: default;"><rect joint-selector="rect" id="v-279" fill="#ffffff" rx="3" ry="3" x="4.547473508864641e-13" y="0" width="0" height="0"  display="none"></rect><text joint-selector="text" id="v-278" fill="#000000" font-size="14" text-anchor="middle" text-vertical-anchor="middle" pointer-events="none"></text></g></g></g><!--z-index:37--><g   id="j_31"  style="opacity: 1;"><path fill="none" cursor="pointer" stroke="transparent" stroke-linecap="round" joint-selector="wrapper" id="v-293" stroke-width="10" stroke-linejoin="round" d="M 2150.08 1632 L 2393 1883 C 2397.6666666666665 1887.9333333333334 2403.333333333333 1890.2666666666667 2410 1890 L 2570 1890.23" style="stroke-width: 10px;"></path><path fill="none" pointer-events="none" joint-selector="line" id="v-292" stroke="#444444" stroke-width="2" stroke-linejoin="round" stroke-dasharray="8 8" d="M 2150.08 1632 L 2393 1883 C 2397.6666666666665 1887.9333333333334 2403.333333333333 1890.2666666666667 2410 1890 L 2570 1890.23" marker-end="url(#v-21252848929)"></path><g id="v-285" ><g id="v-286"  label-idx="0" cursor="move" transform="matrix(1,0,0,1,2400.419189453125,1888.310302734375)" style="cursor: default;"><rect joint-selector="rect" id="v-289" fill="#ffffff" rx="3" ry="3" x="-64.68077087402344" y="-33.18366622924805" width="129.3615264892578" height="62.20757293701172" pointer-events="none"  style="display: block;"></rect><text joint-selector="text" id="v-288" font-size="24px" xml:space="preserve" fill="#444444" text-anchor="middle" pointer-events="none" font-family="Tahoma, Verdana, Helvetica, Arial" font-weight="normal"  style="display: block;"><tspan  dy="-0.3em">Читает из и</tspan><tspan dy="1.2em" x="0" >пишет в</tspan></text></g><g id="v-287"  label-idx="1" cursor="move" transform="matrix(1,0,0,1,2390.419189453125,1914.7103271484375)" style="cursor: default;"><rect joint-selector="rect" id="v-291" fill="#ffffff" rx="3" ry="3" x="0" y="2.2737367544323206e-13" width="0" height="0"  display="none"></rect><text joint-selector="text" id="v-290" fill="#000000" font-size="14" text-anchor="middle" text-vertical-anchor="middle" pointer-events="none"></text></g></g></g><!--z-index:38--><g   id="j_32"  style="opacity: 1;"><path fill="none" cursor="pointer" stroke="transparent" stroke-linecap="round" joint-selector="wrapper" id="v-305" stroke-width="10" stroke-linejoin="round" d="M 2119.43 1332 L 2394 972 C 2398 966.8 2401.6666666666665 961.4666666666666 2405 956 L 2704.57 459"></path><path fill="none" pointer-events="none" joint-selector="line" id="v-304" stroke="#444444" stroke-width="2" stroke-linejoin="round" stroke-dasharray="8 8" d="M 2119.43 1332 L 2394 972 C 2398 966.8 2401.6666666666665 961.4666666666666 2405 956 L 2704.57 459" marker-end="url(#v-21252848929)"></path><g id="v-297" ><g id="v-298"  label-idx="0" cursor="move" transform="matrix(1,0,0,1,2399.96435546875,963.787353515625)" style="cursor: default;"><rect joint-selector="rect" id="v-301" fill="#ffffff" rx="3" ry="3" x="-93.91239166259766" y="-61.983665466308594" width="188.12173461914062" height="119.80757141113281" pointer-events="none"  style="display: block;"></rect><text joint-selector="text" id="v-300" font-size="24px" xml:space="preserve" fill="#444444" text-anchor="middle" pointer-events="none" font-family="Tahoma, Verdana, Helvetica, Arial" font-weight="normal"  style="display: block;"><tspan  dy="-1.4999999999999998em">Перенаправляет</tspan><tspan dy="1.2em" x="0" >для заказа</tspan><tspan dy="1.2em" x="0" >необходимых</tspan><tspan dy="1.2em" x="0" >лекарств</tspan></text></g><g id="v-299"  label-idx="1" cursor="move" transform="matrix(1,0,0,1,2389.96435546875,1018.9873657226562)" style="cursor: default;"><rect joint-selector="rect" id="v-303" fill="#ffffff" rx="3" ry="3" x="0" y="1.1368683772161603e-13" width="0" height="0"  display="none"></rect><text joint-selector="text" id="v-302" fill="#000000" font-size="14" text-anchor="middle" text-vertical-anchor="middle" pointer-events="none"></text></g></g></g><!--z-index:39--><g   id="j_33"  style="opacity: 1;"><path fill="none" cursor="pointer" stroke="transparent" stroke-linecap="round" joint-selector="wrapper" id="v-317" stroke-width="10" stroke-linejoin="round" d="M 2170.78 1332 L 2393 1131 C 2397.6666666666665 1126.7333333333331 2402 1122.0666666666666 2406 1117 L 2667.74 809" style="stroke-width: 10px;"></path><path fill="none" pointer-events="none" joint-selector="line" id="v-316" stroke="#444444" stroke-width="2" stroke-linejoin="round" stroke-dasharray="8 8" d="M 2170.78 1332 L 2393 1131 C 2397.6666666666665 1126.7333333333331 2402 1122.0666666666666 2406 1117 L 2667.74 809" marker-end="url(#v-21252848929)"></path><g id="v-309" ><g id="v-310"  label-idx="0" cursor="move" transform="matrix(1,0,0,1,2399.952880859375,1124.0809326171875)" style="cursor: default;"><rect joint-selector="rect" id="v-313" fill="#ffffff" rx="3" ry="3" x="-92.5204086303711" y="-61.983665466308594" width="185.0408172607422" height="119.80757141113281" pointer-events="none"  style="display: block;"></rect><text joint-selector="text" id="v-312" font-size="24px" xml:space="preserve" fill="#444444" text-anchor="middle" pointer-events="none" font-family="Tahoma, Verdana, Helvetica, Arial" font-weight="normal"  style="display: block;"><tspan  dy="-1.4999999999999998em">Отправляет</tspan><tspan dy="1.2em" x="0" >уведомления об</tspan><tspan dy="1.2em" x="0" >истечении срока</tspan><tspan dy="1.2em" x="0" >годности</tspan></text></g><g id="v-311"  label-idx="1" cursor="move" transform="matrix(1,0,0,1,2389.952880859375,1179.281005859375)" style="cursor: default;"><rect joint-selector="rect" id="v-315" fill="#ffffff" rx="3" ry="3" x="0" y="1.1368683772161603e-13" width="0" height="0"  display="none"></rect><text joint-selector="text" id="v-314" fill="#000000" font-size="14" text-anchor="middle" text-vertical-anchor="middle" pointer-events="none"></text></g></g></g><!--z-index:40--></g><g  style="user-select: none;"></g><g ></g><g  display="none"></g></g></svg>