<svg xmlns="http://www.w3.org/2000/svg" xmlns:xlink="http://www.w3.org/1999/xlink" contentStyleType="text/css" data-diagram-type="SEQUENCE" height="478px" preserveAspectRatio="none" style="width:618px;height:478px;background:#FFFFFF;" version="1.1" viewBox="0 0 618 478" width="618px" zoomAndPan="magnify"><title>Сценарий: Регистрация нового пользователя</title><defs/><g><text fill="#000000" font-family="sans-serif" font-size="14" font-weight="bold" lengthAdjust="spacing" textLength="367.0762" x="127.1899" y="27.9951">Сценарий: Регистрация нового пользователя</text><g><title>.......</title><rect fill="#FFFFFF" height="229.9297" style="stroke:#181818;stroke-width:1;" width="10" x="291.5264" y="149.7266"/></g><g><title>.... ......</title><rect fill="#FFFFFF" height="29.1328" style="stroke:#181818;stroke-width:1;" width="10" x="562.1753" y="220.9922"/></g><g><title>.... ......</title><rect fill="#FFFFFF" height="29.1328" style="stroke:#181818;stroke-width:1;" width="10" x="562.1753" y="321.3906"/></g><g><title>............</title><rect fill="#000000" fill-opacity="0.00000" height="279.0625" width="8" x="55.5498" y="118.5938"/><line style="stroke:#181818;stroke-width:0.5;stroke-dasharray:5,5;" x1="59" x2="59" y1="118.5938" y2="397.6563"/></g><g><title>.......</title><rect fill="#000000" fill-opacity="0.00000" height="279.0625" width="8" x="292.5264" y="118.5938"/><line style="stroke:#181818;stroke-width:0.5;stroke-dasharray:5,5;" x1="296.2861" x2="296.2861" y1="118.5938" y2="397.6563"/></g><g><title>.... ......</title><rect fill="#000000" fill-opacity="0.00000" height="279.0625" width="8" x="563.1753" y="118.5938"/><line style="stroke:#181818;stroke-width:0.5;stroke-dasharray:5,5;" x1="566.8945" x2="566.8945" y1="118.5938" y2="397.6563"/></g><g class="participant participant-head" data-participant="User"><text fill="#000000" font-family="sans-serif" font-size="14" lengthAdjust="spacing" textLength="103.0996" x="5" y="115.292">Пользователь</text><ellipse cx="59.5498" cy="50.7969" fill="#E2E2F0" rx="8" ry="8" style="stroke:#181818;stroke-width:0.5;"/><path d="M59.5498,58.7969 L59.5498,85.7969 M46.5498,66.7969 L72.5498,66.7969 M59.5498,85.7969 L46.5498,100.7969 M59.5498,85.7969 L72.5498,100.7969" fill="none" style="stroke:#181818;stroke-width:0.5;"/></g><g class="participant participant-tail" data-participant="User"><text fill="#000000" font-family="sans-serif" font-size="14" lengthAdjust="spacing" textLength="103.0996" x="5" y="409.6514">Пользователь</text><ellipse cx="59.5498" cy="421.4531" fill="#E2E2F0" rx="8" ry="8" style="stroke:#181818;stroke-width:0.5;"/><path d="M59.5498,429.4531 L59.5498,456.4531 M46.5498,437.4531 L72.5498,437.4531 M59.5498,456.4531 L46.5498,471.4531 M59.5498,456.4531 L72.5498,471.4531" fill="none" style="stroke:#181818;stroke-width:0.5;"/></g><g class="participant participant-head" data-participant="System"><rect fill="#E2E2F0" height="30.2969" rx="2.5" ry="2.5" style="stroke:#181818;stroke-width:0.5;" width="76.4805" x="258.2861" y="87.2969"/><text fill="#000000" font-family="sans-serif" font-size="14" lengthAdjust="spacing" textLength="62.4805" x="265.2861" y="107.292">Система</text></g><g class="participant participant-tail" data-participant="System"><rect fill="#E2E2F0" height="30.2969" rx="2.5" ry="2.5" style="stroke:#181818;stroke-width:0.5;" width="76.4805" x="258.2861" y="396.6563"/><text fill="#000000" font-family="sans-serif" font-size="14" lengthAdjust="spacing" textLength="62.4805" x="265.2861" y="416.6514">Система</text></g><g class="participant participant-head" data-participant="DB"><text fill="#000000" font-family="sans-serif" font-size="14" lengthAdjust="spacing" textLength="94.5615" x="516.8945" y="115.292">База данных</text><path d="M549.1753,66.2969 C549.1753,56.2969 567.1753,56.2969 567.1753,56.2969 C567.1753,56.2969 585.1753,56.2969 585.1753,66.2969 L585.1753,92.2969 C585.1753,102.2969 567.1753,102.2969 567.1753,102.2969 C567.1753,102.2969 549.1753,102.2969 549.1753,92.2969 L549.1753,66.2969" fill="#E2E2F0" style="stroke:#181818;stroke-width:0.5;"/><path d="M549.1753,66.2969 C549.1753,76.2969 567.1753,76.2969 567.1753,76.2969 C567.1753,76.2969 585.1753,76.2969 585.1753,66.2969" fill="none" style="stroke:#181818;stroke-width:0.5;"/></g><g class="participant participant-tail" data-participant="DB"><text fill="#000000" font-family="sans-serif" font-size="14" lengthAdjust="spacing" textLength="94.5615" x="516.8945" y="409.6514">База данных</text><path d="M549.1753,422.9531 C549.1753,412.9531 567.1753,412.9531 567.1753,412.9531 C567.1753,412.9531 585.1753,412.9531 585.1753,422.9531 L585.1753,448.9531 C585.1753,458.9531 567.1753,458.9531 567.1753,458.9531 C567.1753,458.9531 549.1753,458.9531 549.1753,448.9531 L549.1753,422.9531" fill="#E2E2F0" style="stroke:#181818;stroke-width:0.5;"/><path d="M549.1753,422.9531 C549.1753,432.9531 567.1753,432.9531 567.1753,432.9531 C567.1753,432.9531 585.1753,432.9531 585.1753,422.9531" fill="none" style="stroke:#181818;stroke-width:0.5;"/></g><g><title>.......</title><rect fill="#FFFFFF" height="229.9297" style="stroke:#181818;stroke-width:1;" width="10" x="291.5264" y="149.7266"/></g><g><title>.... ......</title><rect fill="#FFFFFF" height="29.1328" style="stroke:#181818;stroke-width:1;" width="10" x="562.1753" y="220.9922"/></g><g><title>.... ......</title><rect fill="#FFFFFF" height="29.1328" style="stroke:#181818;stroke-width:1;" width="10" x="562.1753" y="321.3906"/></g><g class="message" data-participant-1="User" data-participant-2="System"><polygon fill="#181818" points="279.5264,145.7266,289.5264,149.7266,279.5264,153.7266,283.5264,149.7266" style="stroke:#181818;stroke-width:1;"/><line style="stroke:#181818;stroke-width:1;" x1="59.5498" x2="285.5264" y1="149.7266" y2="149.7266"/><text fill="#000000" font-family="sans-serif" font-size="13" lengthAdjust="spacing" textLength="212.9766" x="66.5498" y="144.6606">1. Ввести данные регистрации</text></g><g class="message" data-participant-1="System" data-participant-2="System"><line style="stroke:#181818;stroke-width:1;" x1="301.5264" x2="343.5264" y1="178.8594" y2="178.8594"/><line style="stroke:#181818;stroke-width:1;" x1="343.5264" x2="343.5264" y1="178.8594" y2="191.8594"/><line style="stroke:#181818;stroke-width:1;" x1="302.5264" x2="343.5264" y1="191.8594" y2="191.8594"/><polygon fill="#181818" points="312.5264,187.8594,302.5264,191.8594,312.5264,195.8594,308.5264,191.8594" style="stroke:#181818;stroke-width:1;"/><text fill="#000000" font-family="sans-serif" font-size="13" lengthAdjust="spacing" textLength="148.2939" x="308.5264" y="173.7935">2. Валидация данных</text></g><g class="message" data-participant-1="System" data-participant-2="DB"><polygon fill="#181818" points="550.1753,216.9922,560.1753,220.9922,550.1753,224.9922,554.1753,220.9922" style="stroke:#181818;stroke-width:1;"/><line style="stroke:#181818;stroke-width:1;" x1="301.5264" x2="556.1753" y1="220.9922" y2="220.9922"/><text fill="#000000" font-family="sans-serif" font-size="13" lengthAdjust="spacing" textLength="241.6489" x="308.5264" y="215.9263">3. Проверить уникальность логина</text></g><g class="message" data-participant-1="DB" data-participant-2="System"><polygon fill="#181818" points="312.5264,246.125,302.5264,250.125,312.5264,254.125,308.5264,250.125" style="stroke:#181818;stroke-width:1;"/><line style="stroke:#181818;stroke-width:1;stroke-dasharray:2,2;" x1="306.5264" x2="566.1753" y1="250.125" y2="250.125"/><text fill="#000000" font-family="sans-serif" font-size="13" lengthAdjust="spacing" textLength="109.8589" x="318.5264" y="245.0591">Логин свободен</text></g><g class="message" data-participant-1="System" data-participant-2="System"><line style="stroke:#181818;stroke-width:1;" x1="301.5264" x2="343.5264" y1="279.2578" y2="279.2578"/><line style="stroke:#181818;stroke-width:1;" x1="343.5264" x2="343.5264" y1="279.2578" y2="292.2578"/><line style="stroke:#181818;stroke-width:1;" x1="302.5264" x2="343.5264" y1="292.2578" y2="292.2578"/><polygon fill="#181818" points="312.5264,288.2578,302.5264,292.2578,312.5264,296.2578,308.5264,292.2578" style="stroke:#181818;stroke-width:1;"/><text fill="#000000" font-family="sans-serif" font-size="13" lengthAdjust="spacing" textLength="153.626" x="308.5264" y="274.1919">4. Хешировать пароль</text></g><g class="message" data-participant-1="System" data-participant-2="DB"><polygon fill="#181818" points="550.1753,317.3906,560.1753,321.3906,550.1753,325.3906,554.1753,321.3906" style="stroke:#181818;stroke-width:1;"/><line style="stroke:#181818;stroke-width:1;" x1="301.5264" x2="556.1753" y1="321.3906" y2="321.3906"/><text fill="#000000" font-family="sans-serif" font-size="13" lengthAdjust="spacing" textLength="188.4111" x="308.5264" y="316.3247">5. Сохранить пользователя</text></g><g class="message" data-participant-1="DB" data-participant-2="System"><polygon fill="#181818" points="312.5264,346.5234,302.5264,350.5234,312.5264,354.5234,308.5264,350.5234" style="stroke:#181818;stroke-width:1;"/><line style="stroke:#181818;stroke-width:1;stroke-dasharray:2,2;" x1="306.5264" x2="566.1753" y1="350.5234" y2="350.5234"/><text fill="#000000" font-family="sans-serif" font-size="13" lengthAdjust="spacing" textLength="147.3354" x="318.5264" y="345.4575">Пользователь создан</text></g><g class="message" data-participant-1="System" data-participant-2="User"><polygon fill="#181818" points="70.5498,375.6563,60.5498,379.6563,70.5498,383.6563,66.5498,379.6563" style="stroke:#181818;stroke-width:1;"/><line style="stroke:#181818;stroke-width:1;stroke-dasharray:2,2;" x1="64.5498" x2="295.5264" y1="379.6563" y2="379.6563"/><text fill="#000000" font-family="sans-serif" font-size="13" lengthAdjust="spacing" textLength="167.54" x="76.5498" y="374.5903">6. Регистрация успешна</text></g><!--SRC=[VLAxJiD04EplArRf4ubduO8YoXyWFk18N5ZY4SMdI7HvA0W9In6q5245_K4ISH1Y_yBU7p5tmSe94WhBv_FCxEpigaHTnCHJUyiBNh6sFJRy4H4_utl6nlRj07SQ_uqT4o0vl-6PSKvSuB2q6R_xIsq7u2pjM0ZPLDSTgl1aAo2ha4pfB8qxeYqxAcacRNcb09-kwm7qnTg3JczI5L-AbbJoNAOnC0-i8QU9vpYiU6NlxSX36tKXd2PLJtve4UtLY1zHUU5bJK3Y1Q6jFosoSTwJhbHnMLkitw7ilfVLl0HXliacS1Io6lM83i2Oe4ZkpI1ZbCp83e4t_Ecaa1AozLuoWhABsBY9R0oXmqQTge4HVYfnPFj-BgzuvcwKeXM7n2rT7CBJ2zpSmKsl790hNlWry9FxtSSHE5FO7Bd0dFcIiNqH_hE-OpTS8pakVPYxce2E6tL4nxLTcsg742fyUox4G6WjyWq0]--></g></svg>