<svg xmlns="http://www.w3.org/2000/svg" xmlns:xlink="http://www.w3.org/1999/xlink" contentStyleType="text/css" data-diagram-type="SEQUENCE" height="378px" preserveAspectRatio="none" style="width:534px;height:378px;background:#FFFFFF;" version="1.1" viewBox="0 0 534 378" width="534px" zoomAndPan="magnify"><title>Сценарий: Вход существующего пользователя</title><defs/><g><text fill="#000000" font-family="sans-serif" font-size="14" font-weight="bold" lengthAdjust="spacing" textLength="383.373" x="77.074" y="27.9951">Сценарий: Вход существующего пользователя</text><g><title>.......</title><rect fill="#FFFFFF" height="129.5313" style="stroke:#181818;stroke-width:1;" width="10" x="235.8257" y="149.7266"/></g><g><title>.... ......</title><rect fill="#FFFFFF" height="29.1328" style="stroke:#181818;stroke-width:1;" width="10" x="478.2402" y="178.8594"/></g><g><title>............</title><rect fill="#000000" fill-opacity="0.00000" height="178.6641" width="8" x="55.5498" y="118.5938"/><line style="stroke:#181818;stroke-width:0.5;stroke-dasharray:5,5;" x1="59" x2="59" y1="118.5938" y2="297.2578"/></g><g><title>.......</title><rect fill="#000000" fill-opacity="0.00000" height="178.6641" width="8" x="236.8257" y="118.5938"/><line style="stroke:#181818;stroke-width:0.5;stroke-dasharray:5,5;" x1="240.5854" x2="240.5854" y1="118.5938" y2="297.2578"/></g><g><title>.... ......</title><rect fill="#000000" fill-opacity="0.00000" height="178.6641" width="8" x="479.2402" y="118.5938"/><line style="stroke:#181818;stroke-width:0.5;stroke-dasharray:5,5;" x1="482.9595" x2="482.9595" y1="118.5938" y2="297.2578"/></g><g class="participant participant-head" data-participant="User"><text fill="#000000" font-family="sans-serif" font-size="14" lengthAdjust="spacing" textLength="103.0996" x="5" y="115.292">Пользователь</text><ellipse cx="59.5498" cy="50.7969" fill="#E2E2F0" rx="8" ry="8" style="stroke:#181818;stroke-width:0.5;"/><path d="M59.5498,58.7969 L59.5498,85.7969 M46.5498,66.7969 L72.5498,66.7969 M59.5498,85.7969 L46.5498,100.7969 M59.5498,85.7969 L72.5498,100.7969" fill="none" style="stroke:#181818;stroke-width:0.5;"/></g><g class="participant participant-tail" data-participant="User"><text fill="#000000" font-family="sans-serif" font-size="14" lengthAdjust="spacing" textLength="103.0996" x="5" y="309.2529">Пользователь</text><ellipse cx="59.5498" cy="321.0547" fill="#E2E2F0" rx="8" ry="8" style="stroke:#181818;stroke-width:0.5;"/><path d="M59.5498,329.0547 L59.5498,356.0547 M46.5498,337.0547 L72.5498,337.0547 M59.5498,356.0547 L46.5498,371.0547 M59.5498,356.0547 L72.5498,371.0547" fill="none" style="stroke:#181818;stroke-width:0.5;"/></g><g class="participant participant-head" data-participant="System"><rect fill="#E2E2F0" height="30.2969" rx="2.5" ry="2.5" style="stroke:#181818;stroke-width:0.5;" width="76.4805" x="202.5854" y="87.2969"/><text fill="#000000" font-family="sans-serif" font-size="14" lengthAdjust="spacing" textLength="62.4805" x="209.5854" y="107.292">Система</text></g><g class="participant participant-tail" data-participant="System"><rect fill="#E2E2F0" height="30.2969" rx="2.5" ry="2.5" style="stroke:#181818;stroke-width:0.5;" width="76.4805" x="202.5854" y="296.2578"/><text fill="#000000" font-family="sans-serif" font-size="14" lengthAdjust="spacing" textLength="62.4805" x="209.5854" y="316.2529">Система</text></g><g class="participant participant-head" data-participant="DB"><text fill="#000000" font-family="sans-serif" font-size="14" lengthAdjust="spacing" textLength="94.5615" x="432.9595" y="115.292">База данных</text><path d="M465.2402,66.2969 C465.2402,56.2969 483.2402,56.2969 483.2402,56.2969 C483.2402,56.2969 501.2402,56.2969 501.2402,66.2969 L501.2402,92.2969 C501.2402,102.2969 483.2402,102.2969 483.2402,102.2969 C483.2402,102.2969 465.2402,102.2969 465.2402,92.2969 L465.2402,66.2969" fill="#E2E2F0" style="stroke:#181818;stroke-width:0.5;"/><path d="M465.2402,66.2969 C465.2402,76.2969 483.2402,76.2969 483.2402,76.2969 C483.2402,76.2969 501.2402,76.2969 501.2402,66.2969" fill="none" style="stroke:#181818;stroke-width:0.5;"/></g><g class="participant participant-tail" data-participant="DB"><text fill="#000000" font-family="sans-serif" font-size="14" lengthAdjust="spacing" textLength="94.5615" x="432.9595" y="309.2529">База данных</text><path d="M465.2402,322.5547 C465.2402,312.5547 483.2402,312.5547 483.2402,312.5547 C483.2402,312.5547 501.2402,312.5547 501.2402,322.5547 L501.2402,348.5547 C501.2402,358.5547 483.2402,358.5547 483.2402,358.5547 C483.2402,358.5547 465.2402,358.5547 465.2402,348.5547 L465.2402,322.5547" fill="#E2E2F0" style="stroke:#181818;stroke-width:0.5;"/><path d="M465.2402,322.5547 C465.2402,332.5547 483.2402,332.5547 483.2402,332.5547 C483.2402,332.5547 501.2402,332.5547 501.2402,322.5547" fill="none" style="stroke:#181818;stroke-width:0.5;"/></g><g><title>.......</title><rect fill="#FFFFFF" height="129.5313" style="stroke:#181818;stroke-width:1;" width="10" x="235.8257" y="149.7266"/></g><g><title>.... ......</title><rect fill="#FFFFFF" height="29.1328" style="stroke:#181818;stroke-width:1;" width="10" x="478.2402" y="178.8594"/></g><g class="message" data-participant-1="User" data-participant-2="System"><polygon fill="#181818" points="223.8257,145.7266,233.8257,149.7266,223.8257,153.7266,227.8257,149.7266" style="stroke:#181818;stroke-width:1;"/><line style="stroke:#181818;stroke-width:1;" x1="59.5498" x2="229.8257" y1="149.7266" y2="149.7266"/><text fill="#000000" font-family="sans-serif" font-size="13" lengthAdjust="spacing" textLength="157.2759" x="66.5498" y="144.6606">Ввести логин и пароль</text></g><g class="message" data-participant-1="System" data-participant-2="DB"><polygon fill="#181818" points="466.2402,174.8594,476.2402,178.8594,466.2402,182.8594,470.2402,178.8594" style="stroke:#181818;stroke-width:1;"/><line style="stroke:#181818;stroke-width:1;" x1="245.8257" x2="472.2402" y1="178.8594" y2="178.8594"/><text fill="#000000" font-family="sans-serif" font-size="13" lengthAdjust="spacing" textLength="213.4146" x="252.8257" y="173.7935">Найти пользователя по логину</text></g><g class="message" data-participant-1="DB" data-participant-2="System"><polygon fill="#181818" points="256.8257,203.9922,246.8257,207.9922,256.8257,211.9922,252.8257,207.9922" style="stroke:#181818;stroke-width:1;"/><line style="stroke:#181818;stroke-width:1;stroke-dasharray:2,2;" x1="250.8257" x2="482.2402" y1="207.9922" y2="207.9922"/><text fill="#000000" font-family="sans-serif" font-size="13" lengthAdjust="spacing" textLength="152.1343" x="262.8257" y="202.9263">Данные пользователя</text></g><g class="message" data-participant-1="System" data-participant-2="System"><line style="stroke:#181818;stroke-width:1;" x1="245.8257" x2="287.8257" y1="237.125" y2="237.125"/><line style="stroke:#181818;stroke-width:1;" x1="287.8257" x2="287.8257" y1="237.125" y2="250.125"/><line style="stroke:#181818;stroke-width:1;" x1="246.8257" x2="287.8257" y1="250.125" y2="250.125"/><polygon fill="#181818" points="256.8257,246.125,246.8257,250.125,256.8257,254.125,252.8257,250.125" style="stroke:#181818;stroke-width:1;"/><text fill="#000000" font-family="sans-serif" font-size="13" lengthAdjust="spacing" textLength="126.3501" x="252.8257" y="232.0591">Проверить пароль</text></g><g class="message" data-participant-1="System" data-participant-2="User"><polygon fill="#181818" points="70.5498,275.2578,60.5498,279.2578,70.5498,283.2578,66.5498,279.2578" style="stroke:#181818;stroke-width:1;"/><line style="stroke:#181818;stroke-width:1;stroke-dasharray:2,2;" x1="64.5498" x2="239.8257" y1="279.2578" y2="279.2578"/><text fill="#000000" font-family="sans-serif" font-size="13" lengthAdjust="spacing" textLength="105.3711" x="76.5498" y="274.1919">Вход выполнен</text></g><!--SRC=[TL5DIiD05DxFAHxTzm8kN8JSG3p0sCuYu4z91i6TfbIGXXR5hPJU8BGDfiIqL_ZUZNmpiNK4kteppFSxpoRssX2M_8mABKf-H8tj6U6D9zXXG_p4Otv19JF7IiupTyCQEy9U40qN-9Iv4cuk3mtFbT83UvTI3uj_0KMFT4QNcKdLIASs6IGZVMi5laJjRIfyeVIWYuVCcXirr5PVwSm8vXMbo9M4ZHnQj3pbYOV6aL9Ea_hdFpJNGcoxw3MXaHHhgTUIk-rzMP_FvKtkjJK7FzLD9nL78lCXNjjEv4Hd_n1OyFXNL9B54VN3NE-7yAXEV-FGX191fgFCmZTm5MLjd7FnjzQH8XptDS5QPPNJpbXooEP3iuxr3G00]--></g></svg>