<svg xmlns="http://www.w3.org/2000/svg" xmlns:xlink="http://www.w3.org/1999/xlink" contentStyleType="text/css" data-diagram-type="SEQUENCE" height="578px" preserveAspectRatio="none" style="width:731px;height:578px;background:#FFFFFF;" version="1.1" viewBox="0 0 731 578" width="731px" zoomAndPan="magnify"><title>Сценарий: Подбор препарата при возникновении симптома</title><defs/><g><text fill="#000000" font-family="sans-serif" font-size="14" font-weight="bold" lengthAdjust="spacing" textLength="486.1582" x="124.2109" y="27.9951">Сценарий: Подбор препарата при возникновении симптома</text><g><title>.......</title><rect fill="#FFFFFF" height="330.3281" style="stroke:#181818;stroke-width:1;" width="10" x="254.8984" y="149.7266"/></g><g><title>.... ......</title><rect fill="#FFFFFF" height="29.1328" style="stroke:#181818;stroke-width:1;" width="10" x="675.2993" y="178.8594"/></g><g><title>.... ......</title><rect fill="#FFFFFF" height="29.1328" style="stroke:#181818;stroke-width:1;" width="10" x="675.2993" y="279.2578"/></g><g><title>.... ......</title><rect fill="#FFFFFF" height="29.1328" style="stroke:#181818;stroke-width:1;" width="10" x="675.2993" y="379.6563"/></g><g><title>............</title><rect fill="#000000" fill-opacity="0.00000" height="379.4609" width="8" x="55.5498" y="118.5938"/><line style="stroke:#181818;stroke-width:0.5;stroke-dasharray:5,5;" x1="59" x2="59" y1="118.5938" y2="498.0547"/></g><g><title>.......</title><rect fill="#000000" fill-opacity="0.00000" height="379.4609" width="8" x="255.8984" y="118.5938"/><line style="stroke:#181818;stroke-width:0.5;stroke-dasharray:5,5;" x1="259.6582" x2="259.6582" y1="118.5938" y2="498.0547"/></g><g><title>.... ......</title><rect fill="#000000" fill-opacity="0.00000" height="379.4609" width="8" x="676.2993" y="118.5938"/><line style="stroke:#181818;stroke-width:0.5;stroke-dasharray:5,5;" x1="680.0186" x2="680.0186" y1="118.5938" y2="498.0547"/></g><g class="participant participant-head" data-participant="User"><text fill="#000000" font-family="sans-serif" font-size="14" lengthAdjust="spacing" textLength="103.0996" x="5" y="115.292">Пользователь</text><ellipse cx="59.5498" cy="50.7969" fill="#E2E2F0" rx="8" ry="8" style="stroke:#181818;stroke-width:0.5;"/><path d="M59.5498,58.7969 L59.5498,85.7969 M46.5498,66.7969 L72.5498,66.7969 M59.5498,85.7969 L46.5498,100.7969 M59.5498,85.7969 L72.5498,100.7969" fill="none" style="stroke:#181818;stroke-width:0.5;"/></g><g class="participant participant-tail" data-participant="User"><text fill="#000000" font-family="sans-serif" font-size="14" lengthAdjust="spacing" textLength="103.0996" x="5" y="510.0498">Пользователь</text><ellipse cx="59.5498" cy="521.8516" fill="#E2E2F0" rx="8" ry="8" style="stroke:#181818;stroke-width:0.5;"/><path d="M59.5498,529.8516 L59.5498,556.8516 M46.5498,537.8516 L72.5498,537.8516 M59.5498,556.8516 L46.5498,571.8516 M59.5498,556.8516 L72.5498,571.8516" fill="none" style="stroke:#181818;stroke-width:0.5;"/></g><g class="participant participant-head" data-participant="System"><rect fill="#E2E2F0" height="30.2969" rx="2.5" ry="2.5" style="stroke:#181818;stroke-width:0.5;" width="76.4805" x="221.6582" y="87.2969"/><text fill="#000000" font-family="sans-serif" font-size="14" lengthAdjust="spacing" textLength="62.4805" x="228.6582" y="107.292">Система</text></g><g class="participant participant-tail" data-participant="System"><rect fill="#E2E2F0" height="30.2969" rx="2.5" ry="2.5" style="stroke:#181818;stroke-width:0.5;" width="76.4805" x="221.6582" y="497.0547"/><text fill="#000000" font-family="sans-serif" font-size="14" lengthAdjust="spacing" textLength="62.4805" x="228.6582" y="517.0498">Система</text></g><g class="participant participant-head" data-participant="DB"><text fill="#000000" font-family="sans-serif" font-size="14" lengthAdjust="spacing" textLength="94.5615" x="630.0186" y="115.292">База данных</text><path d="M662.2993,66.2969 C662.2993,56.2969 680.2993,56.2969 680.2993,56.2969 C680.2993,56.2969 698.2993,56.2969 698.2993,66.2969 L698.2993,92.2969 C698.2993,102.2969 680.2993,102.2969 680.2993,102.2969 C680.2993,102.2969 662.2993,102.2969 662.2993,92.2969 L662.2993,66.2969" fill="#E2E2F0" style="stroke:#181818;stroke-width:0.5;"/><path d="M662.2993,66.2969 C662.2993,76.2969 680.2993,76.2969 680.2993,76.2969 C680.2993,76.2969 698.2993,76.2969 698.2993,66.2969" fill="none" style="stroke:#181818;stroke-width:0.5;"/></g><g class="participant participant-tail" data-participant="DB"><text fill="#000000" font-family="sans-serif" font-size="14" lengthAdjust="spacing" textLength="94.5615" x="630.0186" y="510.0498">База данных</text><path d="M662.2993,523.3516 C662.2993,513.3516 680.2993,513.3516 680.2993,513.3516 C680.2993,513.3516 698.2993,513.3516 698.2993,523.3516 L698.2993,549.3516 C698.2993,559.3516 680.2993,559.3516 680.2993,559.3516 C680.2993,559.3516 662.2993,559.3516 662.2993,549.3516 L662.2993,523.3516" fill="#E2E2F0" style="stroke:#181818;stroke-width:0.5;"/><path d="M662.2993,523.3516 C662.2993,533.3516 680.2993,533.3516 680.2993,533.3516 C680.2993,533.3516 698.2993,533.3516 698.2993,523.3516" fill="none" style="stroke:#181818;stroke-width:0.5;"/></g><g><title>.......</title><rect fill="#FFFFFF" height="330.3281" style="stroke:#181818;stroke-width:1;" width="10" x="254.8984" y="149.7266"/></g><g><title>.... ......</title><rect fill="#FFFFFF" height="29.1328" style="stroke:#181818;stroke-width:1;" width="10" x="675.2993" y="178.8594"/></g><g><title>.... ......</title><rect fill="#FFFFFF" height="29.1328" style="stroke:#181818;stroke-width:1;" width="10" x="675.2993" y="279.2578"/></g><g><title>.... ......</title><rect fill="#FFFFFF" height="29.1328" style="stroke:#181818;stroke-width:1;" width="10" x="675.2993" y="379.6563"/></g><g class="message" data-participant-1="User" data-participant-2="System"><polygon fill="#181818" points="242.8984,145.7266,252.8984,149.7266,242.8984,153.7266,246.8984,149.7266" style="stroke:#181818;stroke-width:1;"/><line style="stroke:#181818;stroke-width:1;" x1="59.5498" x2="248.8984" y1="149.7266" y2="149.7266"/><text fill="#000000" font-family="sans-serif" font-size="13" lengthAdjust="spacing" textLength="122.021" x="66.5498" y="144.6606">Выбрать симптом</text></g><g class="message" data-participant-1="System" data-participant-2="DB"><polygon fill="#181818" points="663.2993,174.8594,673.2993,178.8594,663.2993,182.8594,667.2993,178.8594" style="stroke:#181818;stroke-width:1;"/><line style="stroke:#181818;stroke-width:1;" x1="264.8984" x2="669.2993" y1="178.8594" y2="178.8594"/><text fill="#000000" font-family="sans-serif" font-size="13" lengthAdjust="spacing" textLength="208.7173" x="271.8984" y="173.7935">Найти лекарства по симптому</text></g><g class="message" data-participant-1="DB" data-participant-2="System"><polygon fill="#181818" points="275.8984,203.9922,265.8984,207.9922,275.8984,211.9922,271.8984,207.9922" style="stroke:#181818;stroke-width:1;"/><line style="stroke:#181818;stroke-width:1;stroke-dasharray:2,2;" x1="269.8984" x2="679.2993" y1="207.9922" y2="207.9922"/><text fill="#000000" font-family="sans-serif" font-size="13" lengthAdjust="spacing" textLength="115.8701" x="281.8984" y="202.9263">Список лекарств</text></g><g class="message" data-participant-1="System" data-participant-2="System"><line style="stroke:#181818;stroke-width:1;" x1="264.8984" x2="306.8984" y1="237.125" y2="237.125"/><line style="stroke:#181818;stroke-width:1;" x1="306.8984" x2="306.8984" y1="237.125" y2="250.125"/><line style="stroke:#181818;stroke-width:1;" x1="265.8984" x2="306.8984" y1="250.125" y2="250.125"/><polygon fill="#181818" points="275.8984,246.125,265.8984,250.125,275.8984,254.125,271.8984,250.125" style="stroke:#181818;stroke-width:1;"/><text fill="#000000" font-family="sans-serif" font-size="13" lengthAdjust="spacing" textLength="386.4009" x="271.8984" y="232.0591">Проверить безопасность (аллергии, противопоказания)</text></g><g class="message" data-participant-1="System" data-participant-2="DB"><polygon fill="#181818" points="663.2993,275.2578,673.2993,279.2578,663.2993,283.2578,667.2993,279.2578" style="stroke:#181818;stroke-width:1;"/><line style="stroke:#181818;stroke-width:1;" x1="264.8984" x2="669.2993" y1="279.2578" y2="279.2578"/><text fill="#000000" font-family="sans-serif" font-size="13" lengthAdjust="spacing" textLength="280.3442" x="271.8984" y="274.1919">Получить данные аптечки пользователя</text></g><g class="message" data-participant-1="DB" data-participant-2="System"><polygon fill="#181818" points="275.8984,304.3906,265.8984,308.3906,275.8984,312.3906,271.8984,308.3906" style="stroke:#181818;stroke-width:1;"/><line style="stroke:#181818;stroke-width:1;stroke-dasharray:2,2;" x1="269.8984" x2="679.2993" y1="308.3906" y2="308.3906"/><text fill="#000000" font-family="sans-serif" font-size="13" lengthAdjust="spacing" textLength="189.5981" x="281.8984" y="303.3247">Список лекарств в наличии</text></g><g class="message" data-participant-1="System" data-participant-2="System"><line style="stroke:#181818;stroke-width:1;" x1="264.8984" x2="306.8984" y1="337.5234" y2="337.5234"/><line style="stroke:#181818;stroke-width:1;" x1="306.8984" x2="306.8984" y1="337.5234" y2="350.5234"/><line style="stroke:#181818;stroke-width:1;" x1="265.8984" x2="306.8984" y1="350.5234" y2="350.5234"/><polygon fill="#181818" points="275.8984,346.5234,265.8984,350.5234,275.8984,354.5234,271.8984,350.5234" style="stroke:#181818;stroke-width:1;"/><text fill="#000000" font-family="sans-serif" font-size="13" lengthAdjust="spacing" textLength="323.0513" x="271.8984" y="332.4575">Сопоставить найденные лекарства с аптечкой</text></g><g class="message" data-participant-1="System" data-participant-2="DB"><polygon fill="#181818" points="663.2993,375.6563,673.2993,379.6563,663.2993,383.6563,667.2993,379.6563" style="stroke:#181818;stroke-width:1;"/><line style="stroke:#181818;stroke-width:1;" x1="264.8984" x2="669.2993" y1="379.6563" y2="379.6563"/><text fill="#000000" font-family="sans-serif" font-size="13" lengthAdjust="spacing" textLength="202.9346" x="271.8984" y="374.5903">Получить правила дозировки</text></g><g class="message" data-participant-1="DB" data-participant-2="System"><polygon fill="#181818" points="275.8984,404.7891,265.8984,408.7891,275.8984,412.7891,271.8984,408.7891" style="stroke:#181818;stroke-width:1;"/><line style="stroke:#181818;stroke-width:1;stroke-dasharray:2,2;" x1="269.8984" x2="679.2993" y1="408.7891" y2="408.7891"/><text fill="#000000" font-family="sans-serif" font-size="13" lengthAdjust="spacing" textLength="134.9829" x="281.8984" y="403.7231">Правила дозировки</text></g><g class="message" data-participant-1="System" data-participant-2="System"><line style="stroke:#181818;stroke-width:1;" x1="264.8984" x2="306.8984" y1="437.9219" y2="437.9219"/><line style="stroke:#181818;stroke-width:1;" x1="306.8984" x2="306.8984" y1="437.9219" y2="450.9219"/><line style="stroke:#181818;stroke-width:1;" x1="265.8984" x2="306.8984" y1="450.9219" y2="450.9219"/><polygon fill="#181818" points="275.8984,446.9219,265.8984,450.9219,275.8984,454.9219,271.8984,450.9219" style="stroke:#181818;stroke-width:1;"/><text fill="#000000" font-family="sans-serif" font-size="13" lengthAdjust="spacing" textLength="152.8516" x="271.8984" y="432.856">Рассчитать дозировку</text></g><g class="message" data-participant-1="System" data-participant-2="User"><polygon fill="#181818" points="70.5498,476.0547,60.5498,480.0547,70.5498,484.0547,66.5498,480.0547" style="stroke:#181818;stroke-width:1;"/><line style="stroke:#181818;stroke-width:1;stroke-dasharray:2,2;" x1="64.5498" x2="258.8984" y1="480.0547" y2="480.0547"/><text fill="#000000" font-family="sans-serif" font-size="13" lengthAdjust="spacing" textLength="171.3486" x="76.5498" y="474.9888">Показать рекомендацию</text></g><!--SRC=[dLHDJi905Dxt51DMciW5NBWWtC1uW0fTDF67qCR47JzH5n29xWts1WLfd1OeLtXp8x_tfa058yP0Q6VclM- -dnb2Fxpo54NcaH9QKcmwf2azLJIcd6OqeTnq5AqmdT1AbcFJezXEQKLJb7sYKLE6tnpZH4PQcIuU2zJrCBsWs77SHdZRLXM1dfiX-hYUyH8ULvGRg8l0Qpijjntw3R_bteGeZqYRhXG1HOhExuFGktQQRkXUke67cXUA0GTQCxmiQMa6va5AwpN7OKnLFIlQeEtL36XYfPZX3b5cwT-veRVUnR5F1gZNqFo67LBKGlmSd38sHVXDnHRATm1DVmi9DlMQgfQvH6Y1FbHcUu1EqoktbfXisiUG8Qvp7287cILYBSVLvL0O30j783xdBL3wmH6Ts1Hp5YD1hfY5TP93DAFZFVKskxvvMk-sCPmIXLSMdM0rOtzMFmOz-hSVYhzBaQ6P0Ua_E1HPOO8GWqR1cs5Ii4-sxFVZDDtlcd9A3pl2dif609GJoJT45pd1br_bZmyr7nRyphdZ8uIACxuBX4EvQKKltv12If6_lHaTSOIlBzk4gF4teSrpcOH5-G80]--></g></svg>