<svg xmlns="http://www.w3.org/2000/svg" xmlns:xlink="http://www.w3.org/1999/xlink" contentStyleType="text/css" data-diagram-type="DESCRIPTION" height="619px" preserveAspectRatio="none" style="width:1284px;height:619px;background:#FFFFFF;" version="1.1" viewBox="0 0 1284 619" width="1284px" zoomAndPan="magnify"><defs/><g><!--cluster ??????? MyPills--><g class="cluster" data-entity="....... MyPills" data-source-line="9" data-uid="ent0006" id="cluster_....... MyPills"><rect fill="none" height="606" rx="2.5" ry="2.5" style="stroke:#181818;stroke-width:1;" width="676" x="602" y="7"/><text fill="#000000" font-family="sans-serif" font-size="14" font-weight="bold" lengthAdjust="spacing" textLength="127.8047" x="876.0977" y="21.9951">Система MyPills</text></g><!--entity Login--><g class="entity" data-entity="Login" data-source-line="10" data-uid="ent0007" id="entity_Login"><ellipse cx="756.9821" cy="506.0236" fill="#F1F1F1" rx="34.4821" ry="14.5236" style="stroke:#181818;stroke-width:0.5;"/><text fill="#000000" font-family="sans-serif" font-size="14" lengthAdjust="spacing" textLength="44.5225" x="734.7209" y="510.6721">Войти</text></g><!--entity Reg--><g class="entity" data-entity="Reg" data-source-line="11" data-uid="ent0008" id="entity_Reg"><ellipse cx="756.7998" cy="575.76" fill="#F1F1F1" rx="89.2998" ry="20.26" style="stroke:#181818;stroke-width:0.5;"/><text fill="#000000" font-family="sans-serif" font-size="14" lengthAdjust="spacing" textLength="152.1543" x="680.7227" y="580.4084">Зарегистрироваться</text></g><!--entity Profile--><g class="entity" data-entity="Profile" data-source-line="12" data-uid="ent0009" id="entity_Profile"><ellipse cx="1141.6398" cy="562.028" fill="#F1F1F1" rx="120.6398" ry="26.528" style="stroke:#181818;stroke-width:0.5;"/><text fill="#000000" font-family="sans-serif" font-size="14" lengthAdjust="spacing" textLength="220.7188" x="1031.2804" y="566.6764">Заполнить профиль здоровья</text></g><!--entity UpdProfile--><g class="entity" data-entity="UpdProfile" data-source-line="13" data-uid="ent0010" id="entity_UpdProfile"><ellipse cx="757.1617" cy="72.1323" fill="#F1F1F1" rx="136.1617" ry="29.6323" style="stroke:#181818;stroke-width:0.5;"/><text fill="#000000" font-family="sans-serif" font-size="14" lengthAdjust="spacing" textLength="253.5518" x="630.3859" y="76.7808">Редактировать профиль здоровья</text></g><!--entity Search--><g class="entity" data-entity="Search" data-source-line="15" data-uid="ent0011" id="entity_Search"><ellipse cx="756.8263" cy="167.1653" fill="#F1F1F1" rx="138.8263" ry="30.1653" style="stroke:#181818;stroke-width:0.5;"/><text fill="#000000" font-family="sans-serif" font-size="14" lengthAdjust="spacing" textLength="259.1436" x="627.2545" y="171.8137">Подобрать лекарство по симптому</text></g><!--entity CheckAllergy--><g class="entity" data-entity="CheckAllergy" data-source-line="16" data-uid="ent0012" id="entity_CheckAllergy"><ellipse cx="1141.2672" cy="71.8534" fill="#F1F1F1" rx="89.7672" ry="20.3534" style="stroke:#181818;stroke-width:0.5;"/><text fill="#000000" font-family="sans-serif" font-size="14" lengthAdjust="spacing" textLength="153.2139" x="1064.6603" y="76.5019">Проверить аллергии</text></g><!--entity CheckIll--><g class="entity" data-entity="CheckIll" data-source-line="17" data-uid="ent0013" id="entity_CheckIll"><ellipse cx="1141.3702" cy="300.074" fill="#F1F1F1" rx="100.8702" ry="22.574" style="stroke:#181818;stroke-width:0.5;"/><text fill="#000000" font-family="sans-serif" font-size="14" lengthAdjust="spacing" textLength="177.9736" x="1052.3834" y="304.7225">Проверить заболевания</text></g><!--entity CheckStatus--><g class="entity" data-entity="CheckStatus" data-source-line="18" data-uid="ent0014" id="entity_CheckStatus"><ellipse cx="1141.6709" cy="224.0342" fill="#F1F1F1" rx="80.6709" ry="18.5342" style="stroke:#181818;stroke-width:0.5;"/><text fill="#000000" font-family="sans-serif" font-size="14" lengthAdjust="spacing" textLength="132.2549" x="1075.5434" y="228.6826">Проверить статус</text></g><!--entity CalcDose--><g class="entity" data-entity="CalcDose" data-source-line="19" data-uid="ent0015" id="entity_CalcDose"><ellipse cx="1141.7014" cy="148.9403" fill="#F1F1F1" rx="95.2014" ry="21.4403" style="stroke:#181818;stroke-width:0.5;"/><text fill="#000000" font-family="sans-serif" font-size="14" lengthAdjust="spacing" textLength="165.4229" x="1058.99" y="153.5887">Рассчитать дозировки</text></g><!--entity AddMed--><g class="entity" data-entity="AddMed" data-source-line="21" data-uid="ent0016" id="entity_AddMed"><ellipse cx="756.9389" cy="259.1878" fill="#F1F1F1" rx="123.9389" ry="27.1878" style="stroke:#181818;stroke-width:0.5;"/><text fill="#000000" font-family="sans-serif" font-size="14" lengthAdjust="spacing" textLength="227.7393" x="643.0693" y="263.8362">Добавить лекарство в аптечку</text></g><!--entity Revision--><g class="entity" data-entity="Revision" data-source-line="22" data-uid="ent0017" id="entity_Revision"><ellipse cx="757.0007" cy="345.8001" fill="#F1F1F1" rx="112.0007" ry="24.8001" style="stroke:#181818;stroke-width:0.5;"/><text fill="#000000" font-family="sans-serif" font-size="14" lengthAdjust="spacing" textLength="202.2002" x="655.9006" y="350.4486">Провести ревизию аптечки</text></g><!--entity ManageMeds--><g class="entity" data-entity="ManageMeds" data-source-line="24" data-uid="ent0018" id="entity_ManageMeds"><ellipse cx="757.0356" cy="430.8071" fill="#F1F1F1" rx="112.0356" ry="24.8071" style="stroke:#181818;stroke-width:0.5;"/><text fill="#000000" font-family="sans-serif" font-size="14" lengthAdjust="spacing" textLength="202.2754" x="655.8979" y="435.4556">Редактировать справочник</text></g><!--entity Admin--><g class="entity" data-entity="Admin" data-source-line="4" data-uid="ent0002" id="entity_Admin"><ellipse cx="64.0474" cy="359.5" fill="#F1F1F1" rx="8" ry="8" style="stroke:#181818;stroke-width:0.5;"/><path d="M64.0474,367.5 L64.0474,394.5 M51.0474,375.5 L77.0474,375.5 M64.0474,394.5 L51.0474,409.5 M64.0474,394.5 L77.0474,409.5" fill="none" style="stroke:#181818;stroke-width:0.5;"/><text fill="#000000" font-family="sans-serif" font-size="14" lengthAdjust="spacing" textLength="116.0947" x="6" y="423.9951">Администратор</text></g><!--entity User--><g class="entity" data-entity="User" data-source-line="5" data-uid="ent0003" id="entity_User"><ellipse cx="369.0498" cy="229.5" fill="#F1F1F1" rx="8" ry="8" style="stroke:#181818;stroke-width:0.5;"/><path d="M369.0498,237.5 L369.0498,264.5 M356.0498,245.5 L382.0498,245.5 M369.0498,264.5 L356.0498,279.5 M369.0498,264.5 L382.0498,279.5" fill="none" style="stroke:#181818;stroke-width:0.5;"/><text fill="#000000" font-family="sans-serif" font-size="14" lengthAdjust="spacing" textLength="103.0996" x="317.5" y="293.9951">Пользователь</text></g><!--entity Guest--><g class="entity" data-entity="Guest" data-source-line="6" data-uid="ent0004" id="entity_Guest"><ellipse cx="369.0757" cy="512.5" fill="#F1F1F1" rx="8" ry="8" style="stroke:#181818;stroke-width:0.5;"/><path d="M369.0757,520.5 L369.0757,547.5 M356.0757,528.5 L382.0757,528.5 M369.0757,547.5 L356.0757,562.5 M369.0757,547.5 L382.0757,562.5" fill="none" style="stroke:#181818;stroke-width:0.5;"/><text fill="#000000" font-family="sans-serif" font-size="14" lengthAdjust="spacing" textLength="248.1514" x="245" y="576.9951">Неавторизованный пользователь</text></g><!--link Admin to User--><g class="link" data-entity-1="Admin" data-entity-2="User" data-source-line="7" data-uid="lnk5" id="link_Admin_User"><path d="M122.35,364.4 C178.62,340.25 247.0681,310.8869 300.8881,287.7969" fill="none" id="Admin-to-User" style="stroke:#181818;stroke-width:1;"/><polygon fill="none" points="317.43,280.7,298.5225,282.2829,303.2537,293.3108,317.43,280.7" style="stroke:#181818;stroke-width:1;"/></g><!--link Guest to Login--><g class="link" data-entity-1="Guest" data-entity-2="Login" data-source-line="27" data-uid="lnk19" id="link_Guest_Login"><path d="M493.19,530.51 C573.51,523.02 666.4759,514.3472 716.9759,509.6372" fill="none" id="Guest-to-Login" style="stroke:#181818;stroke-width:1;"/><polygon fill="#181818" points="722.95,509.08,713.6174,505.9331,717.9716,509.5443,714.3603,513.8985,722.95,509.08" style="stroke:#181818;stroke-width:1;"/></g><!--link Guest to Reg--><g class="link" data-entity-1="Guest" data-entity-2="Reg" data-source-line="28" data-uid="lnk20" id="link_Guest_Reg"><path d="M493.19,552.85 C551.99,558.03 614.8031,563.5635 667.2531,568.1835" fill="none" id="Guest-to-Reg" style="stroke:#181818;stroke-width:1;"/><polygon fill="#181818" points="673.23,568.71,664.6157,563.9357,668.2493,568.2713,663.9137,571.9049,673.23,568.71" style="stroke:#181818;stroke-width:1;"/></g><!--link Reg to Profile--><g class="link" data-entity-1="Reg" data-entity-2="Profile" data-source-line="29" data-uid="lnk21" id="link_Reg_Profile"><path d="M845.75,572.79 C898.14,570.87 959.344,568.6298 1016.354,566.5398" fill="none" id="Reg-to-Profile" style="stroke:#181818;stroke-width:1;stroke-dasharray:7,7;"/><polygon fill="#181818" points="1022.35,566.32,1013.2095,562.6524,1017.3534,566.5032,1013.5026,570.647,1022.35,566.32" style="stroke:#181818;stroke-width:1;"/><text fill="#000000" font-family="sans-serif" font-size="13" lengthAdjust="spacing" textLength="63.0068" x="927" y="564.0669">«include»</text></g><!--link User to Search--><g class="link" data-entity-1="User" data-entity-2="Search" data-source-line="31" data-uid="lnk22" id="link_User_Search"><path d="M420.86,246.88 C482.28,232.24 580.9436,208.7213 656.9536,190.6013" fill="none" id="User-to-Search" style="stroke:#181818;stroke-width:1;"/><polygon fill="#181818" points="662.79,189.21,653.1078,187.4061,657.9263,190.3695,654.9629,195.188,662.79,189.21" style="stroke:#181818;stroke-width:1;"/></g><!--link User to AddMed--><g class="link" data-entity-1="User" data-entity-2="AddMed" data-source-line="32" data-uid="lnk23" id="link_User_AddMed"><path d="M420.86,259 C474.5,259 555,259 626.68,259" fill="none" id="User-to-AddMed" style="stroke:#181818;stroke-width:1;"/><polygon fill="#181818" points="632.68,259,623.68,255,627.68,259,623.68,263,632.68,259" style="stroke:#181818;stroke-width:1;"/></g><!--link User to Revision--><g class="link" data-entity-1="User" data-entity-2="Revision" data-source-line="33" data-uid="lnk24" id="link_User_Revision"><path d="M420.86,270.46 C486.37,285.23 595.0569,309.7204 671.7469,327.0104" fill="none" id="User-to-Revision" style="stroke:#181818;stroke-width:1;"/><polygon fill="#181818" points="677.6,328.33,669.7001,322.4485,672.7224,327.2303,667.9406,330.2527,677.6,328.33" style="stroke:#181818;stroke-width:1;"/></g><!--link User to UpdProfile--><g class="link" data-entity-1="User" data-entity-2="UpdProfile" data-source-line="34" data-uid="lnk25" id="link_User_UpdProfile"><path d="M420.67,221.62 C464.65,190.61 530.99,147.17 594,119 C616.19,109.08 635.2619,102.3366 658.6819,95.4766" fill="none" id="User-to-UpdProfile" style="stroke:#181818;stroke-width:1;"/><polygon fill="#181818" points="664.44,93.79,654.6785,92.4812,659.6416,95.1955,656.9273,100.1586,664.44,93.79" style="stroke:#181818;stroke-width:1;"/></g><!--link Search to CheckAllergy--><g class="link" data-entity-1="Search" data-entity-2="CheckAllergy" data-source-line="36" data-uid="lnk26" id="link_Search_CheckAllergy"><path d="M849.13,144.37 C920.5,126.64 1011.9568,103.9259 1074.0568,88.5059" fill="none" id="Search-to-CheckAllergy" style="stroke:#181818;stroke-width:1;stroke-dasharray:7,7;"/><polygon fill="#181818" points="1079.88,87.06,1070.1813,85.3468,1075.0274,88.265,1072.1092,93.111,1079.88,87.06" style="stroke:#181818;stroke-width:1;"/><text fill="#000000" font-family="sans-serif" font-size="13" lengthAdjust="spacing" textLength="63.0068" x="927" y="107.0669">«include»</text></g><!--link Search to CheckIll--><g class="link" data-entity-1="Search" data-entity-2="CheckIll" data-source-line="37" data-uid="lnk27" id="link_Search_CheckIll"><path d="M833.81,192.03 C854.09,198.94 875.94,206.58 896,214 C909.47,218.98 912.57,220.91 926,226 C967.94,241.89 978.62,245.33 1021,260 C1041.57,267.12 1058.5085,272.8509 1078.4985,279.5209" fill="none" id="Search-to-CheckIll" style="stroke:#181818;stroke-width:1;stroke-dasharray:7,7;"/><polygon fill="#181818" points="1084.19,281.42,1076.9188,274.777,1079.4471,279.8374,1074.3867,282.3657,1084.19,281.42" style="stroke:#181818;stroke-width:1;"/><text fill="#000000" font-family="sans-serif" font-size="13" lengthAdjust="spacing" textLength="63.0068" x="927" y="222.0669">«include»</text></g><!--link Search to CalcDose--><g class="link" data-entity-1="Search" data-entity-2="CalcDose" data-source-line="38" data-uid="lnk28" id="link_Search_CalcDose"><path d="M892.86,160.65 C944.26,158.23 995.6466,155.8118 1042.2166,153.6218" fill="none" id="Search-to-CalcDose" style="stroke:#181818;stroke-width:1;stroke-dasharray:7,7;"/><polygon fill="#181818" points="1048.21,153.34,1039.032,149.7672,1043.2155,153.5749,1039.4078,157.7584,1048.21,153.34" style="stroke:#181818;stroke-width:1;"/><text fill="#000000" font-family="sans-serif" font-size="13" lengthAdjust="spacing" textLength="63.0068" x="927" y="153.0669">«include»</text></g><!--link Search to CheckStatus--><g class="link" data-entity-1="Search" data-entity-2="CheckStatus" data-source-line="39" data-uid="lnk29" id="link_Search_CheckStatus"><path d="M871.73,183.95 C937.46,193.74 1011.9655,204.8461 1067.6255,213.1361" fill="none" id="Search-to-CheckStatus" style="stroke:#181818;stroke-width:1;stroke-dasharray:7,7;"/><polygon fill="#181818" points="1073.56,214.02,1065.2475,208.7378,1068.6146,213.2834,1064.0689,216.6505,1073.56,214.02" style="stroke:#181818;stroke-width:1;"/><text fill="#000000" font-family="sans-serif" font-size="13" lengthAdjust="spacing" textLength="63.0068" x="927" y="189.0669">«include»</text></g><!--link Admin to ManageMeds--><g class="link" data-entity-1="Admin" data-entity-2="ManageMeds" data-source-line="41" data-uid="lnk30" id="link_Admin_ManageMeds"><path d="M122.22,413.12 C141.22,419.18 162.7,424 183,424 C183,424 183,424 555,424 C584.94,424 611.3836,424.5814 641.2736,425.6214" fill="none" id="Admin-to-ManageMeds" style="stroke:#181818;stroke-width:1;"/><polygon fill="#181818" points="647.27,425.83,638.4145,421.5195,642.273,425.6561,638.1364,429.5146,647.27,425.83" style="stroke:#181818;stroke-width:1;"/></g><!--SRC=[ZLJTYjD06BsVfnXwfHVT1v0bK1H4iB1isGSOajaqT3OfIIeK5TfTmGiN5H6y4lKDid5BisatliBC6_bzCvEVhNQr44fcldE-yvqv4y5FKvf6D0xySKgz8EPk6aGXIIP1E6KnEwDJvawOpqVfN72Asopq1IU4kMaKqvxyAA_bLXRoLXPggSxLGcRgN5PgqQCieGFlB0YRsc-oaXjrATVmd-kw5RxhofE4nqtXLzZ8P6w8WDm2eCcjUYTlgFnr3zFJ6KzIeZlJVh__oZ7Sf14F3NuOjO3QoemEvqU144cFlYGKVW_a9w2zWUtY8H8-ZtmOmknyWMOBWFrinYtWiIBK9Qnzq9XZxhS88rTR13MW7Y7g3GosmTSrM5WP5c0m-ACuEWt0PyFn7JfU0q-9chhz_elhPEfrwImd7WRKoYjpP0ZUG9iI1zJUvBBIHbEr1FOjT8BZa5jreKb7dCNkkEQocbRQ3ysL0Tj6Bu1LriZ7O-vE1aBms9_lHwu1UwKDMzb3B-mW6lzCYBrOhHk7kL3B5Z5AMJfB6Yipg5ggjmYf1qSVrespPIsN2VT9bDnnxJCwXjcirVx5inodHxTMqAMqVWqyRyYzFvGZgA0wKhaEUg7Utu5RBSVyHP3WpUnesPyAE37C1SgiW0GSbAMc6R8GBZC8ISXhGlHDmJlYs8nt5Z30yD230wSE8tr43m-3q1KpZpiE8NYjJB4DGxjWfsqN6ltjKYUMn13ePjsGx7JShO8et5DXJ-yV72OSkwFLNm-duzXl]--></g></svg>